{"glyphs":{"0":{"ha":909,"x_min":20,"x_max":911,"o":"m 553 133 q 565 160 553 133 q 587 265 577 187 q 597 412 597 342 q 553 748 597 612 q 427 883 509 883 q 358 783 382 883 q 334 552 334 683 q 375 220 334 361 q 488 78 416 78 q 553 133 530 78 m 147 128 q 84 201 147 128 q 20 481 20 275 q 147 834 20 688 q 466 980 274 980 q 784 834 658 980 q 911 481 911 688 q 784 128 911 275 q 466 -18 658 -18 q 147 128 274 -18 z "},"1":{"ha":909,"x_min":227,"x_max":664,"o":"m 275 31 q 315 183 315 85 l 315 798 q 308 816 315 808 q 293 823 300 823 q 232 812 254 823 l 227 884 l 587 980 q 623 943 623 975 l 623 184 q 635 93 623 139 q 664 31 646 46 l 664 1 l 275 1 l 275 31 z "},"2":{"ha":909,"x_min":33,"x_max":850,"o":"m 54 60 l 345 338 q 508 677 508 494 q 418 883 508 883 q 361 819 377 883 q 346 680 346 755 l 33 596 q 163 874 44 768 q 462 980 282 980 q 821 732 821 980 q 773 599 821 662 q 625 447 726 536 l 393 237 l 650 237 q 705 242 678 237 q 752 264 732 247 q 793 298 773 281 l 850 292 l 760 64 q 731 17 749 34 q 677 1 712 1 l 54 1 l 54 60 z "},"3":{"ha":909,"x_min":33,"x_max":848,"o":"m 136 32 q 95 57 136 32 q 33 146 54 82 l 337 227 q 451 85 363 85 q 517 124 494 85 q 540 250 540 163 q 487 385 540 353 q 321 417 433 417 q 269 407 292 417 l 269 515 q 415 593 353 535 q 477 730 477 650 q 455 843 477 802 q 409 883 433 883 q 373 838 387 883 q 359 706 359 792 l 51 623 q 160 874 51 768 q 450 980 269 980 q 700 925 615 980 q 785 768 785 870 q 726 629 785 685 q 594 553 668 572 q 782 494 715 553 q 848 321 848 435 q 676 78 848 174 q 332 -18 503 -18 q 136 32 218 -18 z "},"4":{"ha":909,"x_min":39,"x_max":895,"o":"m 389 31 q 419 93 408 50 q 429 184 429 136 l 429 237 l 39 237 l 39 296 l 221 547 q 269 707 269 611 q 253 798 269 748 q 203 886 237 847 l 555 980 q 568 924 568 954 q 560 870 568 897 q 537 821 552 843 l 276 456 l 429 456 l 429 541 l 737 623 l 737 456 l 895 456 l 895 404 l 784 237 l 737 237 l 737 184 q 749 93 737 138 q 779 31 761 48 l 779 1 l 389 1 l 389 31 z "},"5":{"ha":909,"x_min":47,"x_max":847,"o":"m 168 26 q 119 48 168 26 q 47 146 70 70 l 357 229 q 466 79 373 80 q 522 149 509 79 q 534 309 534 218 q 463 485 534 426 q 288 543 391 543 q 199 527 249 543 q 123 490 150 511 l 69 549 l 314 963 l 847 963 l 847 902 l 726 743 l 308 743 l 246 647 q 477 703 350 703 q 759 610 675 703 q 843 382 843 518 q 700 95 843 207 q 367 -18 557 -18 q 168 26 265 -18 z "},"6":{"ha":909,"x_min":81,"x_max":869,"o":"m 541 119 q 548 139 541 119 q 556 220 555 159 q 538 439 556 359 q 464 520 519 520 q 411 475 428 520 q 394 365 394 429 q 419 160 394 241 q 502 79 444 79 q 541 119 527 79 m 195 67 q 138 110 195 67 q 81 293 81 153 q 222 767 81 553 q 610 981 363 981 q 869 829 788 981 l 558 746 q 509 882 549 882 q 438 812 469 881 q 387 610 406 743 q 516 635 478 635 q 781 536 692 635 q 869 293 869 437 q 755 67 869 153 q 475 -18 641 -18 q 195 67 309 -18 z "},"7":{"ha":909,"x_min":90,"x_max":877,"o":"m 241 8 q 239 11 241 8 q 237 22 237 15 q 337 317 237 120 q 526 629 438 515 l 602 726 l 269 726 q 176 705 207 726 q 125 665 145 684 l 90 671 q 209 946 190 930 q 262 963 227 963 l 877 963 l 877 923 l 683 664 q 590 460 626 583 q 554 263 554 336 q 604 30 554 160 l 604 1 l 254 1 q 241 8 246 1 z "},"8":{"ha":909,"x_min":71,"x_max":864,"o":"m 536 666 q 537 674 536 666 q 537 730 537 682 q 521 837 537 791 q 450 882 505 882 q 398 829 398 882 q 438 727 398 777 q 532 631 479 677 q 536 666 536 649 m 542 104 q 550 117 542 104 q 557 170 557 129 q 514 268 557 213 q 392 380 470 323 q 380 328 382 355 q 378 233 378 300 q 408 119 378 159 q 496 79 439 79 q 542 104 527 80 m 167 32 q 119 56 167 32 q 71 174 71 81 q 119 298 71 247 q 317 434 168 349 q 151 587 210 508 q 92 734 92 667 q 206 916 92 852 q 488 980 321 980 q 761 921 678 980 q 844 789 844 863 q 800 680 844 721 q 610 562 756 638 q 801 381 738 463 q 864 228 864 298 q 756 56 864 130 q 447 -18 648 -18 q 167 32 262 -18 z "},"9":{"ha":909,"x_min":69,"x_max":857,"o":"m 527 488 q 535 511 527 488 q 544 598 544 534 q 519 803 544 722 q 436 884 494 884 q 396 844 411 884 q 382 743 382 804 q 400 524 382 604 q 474 443 418 443 q 527 488 510 443 m 69 134 l 380 217 q 429 81 389 81 q 500 151 469 82 q 551 353 532 220 q 422 328 460 328 q 157 427 245 328 q 69 670 69 526 q 183 896 69 810 q 463 981 297 981 q 743 896 629 981 q 857 670 857 810 q 715 196 857 410 q 328 -18 574 -18 q 69 134 150 -18 z "},"\u0000":{"ha":694,"x_min":0,"x_max":0,"o":""}," ":{"ha":345,"x_min":0,"x_max":0,"o":""},"!":{"ha":463,"x_min":54,"x_max":418,"o":"m 101 336 q 95 342 101 336 q 89 364 89 347 l 89 686 q 84 764 89 737 q 54 899 80 790 l 356 980 q 385 969 373 980 q 397 941 397 958 l 397 522 q 412 400 397 501 l 130 325 q 101 336 113 325 m 111 15 q 90 31 111 15 q 68 105 68 48 q 131 229 68 180 q 273 278 194 278 q 377 243 336 278 q 418 150 418 208 q 355 30 418 78 q 214 -19 291 -18 q 111 15 153 -19 z "},"\"":{"ha":531,"x_min":5,"x_max":514,"o":"m 311 819 q 284 909 307 888 l 284 937 l 482 980 q 505 971 495 980 q 514 949 514 963 l 496 628 l 323 628 l 311 819 m 32 819 q 5 909 27 888 l 5 937 l 203 980 q 225 971 216 980 q 235 949 235 963 l 217 628 l 45 628 l 32 819 z "},"#":{"ha":909,"x_min":89,"x_max":846,"o":"m 551 370 l 597 592 l 385 592 l 338 370 l 551 370 m 214 268 l 89 268 l 89 370 l 235 370 l 283 592 l 89 592 l 89 694 l 304 694 l 366 980 l 467 980 l 406 694 l 619 694 l 680 980 l 783 980 l 722 694 l 846 694 l 846 592 l 700 592 l 653 370 l 846 370 l 846 268 l 631 268 l 570 -19 l 468 -19 l 529 268 l 316 268 l 255 -19 l 153 -19 l 214 268 z "},"$":{"ha":909,"x_min":104,"x_max":838,"o":"m 440 871 q 418 851 426 865 q 411 819 411 838 q 440 712 411 757 l 440 871 m 567 125 q 571 134 567 125 q 576 163 576 143 q 542 243 576 207 l 542 98 q 567 125 558 108 m 440 -19 q 104 148 104 -14 q 139 273 104 201 q 237 382 175 345 q 323 191 258 295 q 440 79 389 87 l 440 321 q 182 513 244 439 q 120 688 120 588 q 221 890 120 803 q 440 977 323 977 l 440 1067 l 542 1067 l 542 979 q 736 924 673 969 q 800 805 800 878 q 772 695 800 745 q 696 614 745 646 q 621 799 676 721 q 542 878 565 878 l 542 623 q 730 502 682 537 q 808 413 779 466 q 838 291 838 360 q 748 86 838 162 q 542 -12 659 10 l 542 -106 l 440 -106 l 440 -19 z "},"%":{"ha":1217,"x_min":37,"x_max":1183,"o":"m 959 102 q 966 127 959 102 q 972 201 972 152 q 948 355 972 296 q 881 414 924 414 q 845 371 857 414 q 832 268 832 329 q 854 115 832 178 q 914 53 876 53 q 959 102 947 53 m 375 594 q 381 619 375 594 q 387 693 387 644 q 363 847 387 788 q 296 906 340 906 q 260 863 273 906 q 247 760 248 821 q 269 607 248 670 q 330 545 291 545 q 375 594 362 545 m 286 22 l 845 990 l 933 940 l 374 -29 l 286 22 m 116 548 q 76 585 116 548 q 37 726 37 622 q 116 906 37 831 q 317 980 196 980 q 518 906 438 980 q 597 726 597 831 q 518 548 597 622 q 317 473 438 473 q 116 548 196 473 m 701 55 q 661 92 701 55 q 621 235 621 130 q 701 414 621 340 q 902 488 781 488 q 1103 414 1023 488 q 1183 235 1183 340 q 1103 55 1183 130 q 902 -19 1023 -19 q 701 55 781 -19 z "},"&":{"ha":1164,"x_min":0,"x_max":1196,"o":"m 486 702 q 495 717 486 702 q 504 768 504 732 q 484 859 503 829 q 441 888 465 888 q 406 864 416 888 q 396 788 396 840 q 433 650 396 715 q 486 702 467 671 m 524 89 q 536 92 524 89 q 585 113 549 95 l 330 366 q 307 265 307 321 q 343 129 307 174 q 453 83 378 85 q 524 89 498 83 m 115 45 q 58 77 115 45 q 0 218 0 109 q 48 374 0 304 q 195 504 96 444 q 90 734 90 613 q 201 908 90 838 q 486 980 311 979 q 726 930 655 979 q 797 818 797 881 q 735 681 797 743 q 517 539 673 619 l 740 315 q 741 358 741 330 q 719 461 741 424 q 650 499 697 499 q 618 498 627 499 q 602 492 610 497 l 593 547 q 723 585 654 570 q 838 600 792 600 q 975 574 901 600 q 1131 549 1048 549 q 1164 550 1150 549 q 1185 554 1177 551 l 1196 494 q 1024 444 1120 457 q 1038 376 1038 409 q 907 146 1038 256 l 912 142 q 1020 95 947 109 q 1144 76 1092 81 l 1144 -1 l 738 -1 q 675 24 705 -1 q 404 -19 549 -19 q 115 45 231 -19 z "},"'":{"ha":252,"x_min":5,"x_max":235,"o":"m 32 819 q 5 909 27 888 l 5 937 l 203 980 q 225 971 216 980 q 235 949 235 963 l 217 628 l 45 628 l 32 819 z "},"(":{"ha":503,"x_min":107,"x_max":464,"o":"m 196 -39 q 151 46 196 -39 q 107 326 107 130 q 196 690 107 522 q 438 980 284 859 l 464 923 q 360 665 404 799 q 317 326 317 532 q 360 -14 317 120 q 464 -272 404 -147 l 438 -328 q 196 -39 284 -208 z "},")":{"ha":506,"x_min":50,"x_max":407,"o":"m 50 -272 q 154 -14 111 -147 q 197 326 197 120 q 154 665 197 532 q 50 923 111 799 l 76 980 q 318 690 230 859 q 407 326 407 522 q 318 -39 407 130 q 76 -328 230 -208 l 50 -272 z "},"*":{"ha":398,"x_min":-7,"x_max":419,"o":"m 73 578 q 48 625 48 597 q 58 652 48 641 l 114 720 l 43 735 q 21 728 31 735 l -1 736 l -7 827 q 18 858 1 848 q 48 867 35 867 l 59 865 l 140 832 l 138 870 q 134 900 137 886 q 119 924 131 915 l 120 946 l 205 980 q 244 966 227 980 q 261 930 261 953 l 255 842 l 290 857 q 336 890 329 872 l 357 897 l 416 826 q 419 806 419 816 q 385 757 419 772 l 299 735 l 324 707 q 370 673 346 682 l 383 656 l 334 578 q 296 566 316 566 q 259 585 272 566 l 212 660 l 193 628 q 174 585 174 600 q 176 574 174 580 l 162 556 l 73 578 z "},"+":{"ha":909,"x_min":174,"x_max":730,"o":"m 401 430 l 174 430 l 174 532 l 401 532 l 401 759 l 503 759 l 503 532 l 730 532 l 730 430 l 503 430 l 503 202 l 401 202 l 401 430 z "},",":{"ha":463,"x_min":56,"x_max":407,"o":"m 56 -134 q 182 -18 147 -85 q 95 18 134 -12 q 56 105 56 48 q 119 229 56 180 q 261 278 182 278 q 366 243 324 277 q 407 151 407 208 q 311 -63 407 37 q 74 -228 216 -163 l 56 -134 z "},"-":{"ha":383,"x_min":7,"x_max":391,"o":"m 7 373 l 391 373 l 391 271 l 7 271 l 7 373 z "},".":{"ha":463,"x_min":56,"x_max":406,"o":"m 98 15 q 77 32 98 15 q 56 105 56 48 q 118 229 56 180 q 260 278 181 278 q 365 243 323 277 q 406 150 406 208 q 342 30 406 78 q 201 -19 278 -19 q 98 15 140 -18 z "},"/":{"ha":388,"x_min":58,"x_max":369,"o":"m 271 980 l 369 980 l 157 -19 l 58 -19 l 271 980 z "},":":{"ha":463,"x_min":56,"x_max":406,"o":"m 98 15 q 77 32 98 15 q 56 105 56 48 q 118 229 56 180 q 260 278 181 278 q 365 243 323 278 q 406 150 406 208 q 342 30 406 78 q 201 -19 278 -19 q 98 15 140 -18 m 98 399 q 77 416 98 399 q 56 490 56 433 q 118 614 56 565 q 260 663 181 663 q 365 628 323 663 q 406 535 406 593 q 342 415 406 463 q 201 366 278 367 q 98 399 140 366 z "},";":{"ha":463,"x_min":56,"x_max":407,"o":"m 98 399 q 77 416 98 399 q 56 490 56 433 q 119 614 56 565 q 261 663 182 663 q 366 628 324 663 q 407 535 407 593 q 343 415 407 463 q 201 366 279 367 q 98 399 141 366 m 56 -176 q 192 -38 161 -119 l 199 -19 q 98 16 140 -17 q 56 105 56 48 q 119 229 56 180 q 261 278 182 277 q 366 243 324 278 q 407 151 407 208 q 311 -63 407 37 q 74 -228 216 -163 l 56 -176 z "},"<":{"ha":909,"x_min":80,"x_max":747,"o":"m 80 422 l 80 539 l 747 781 l 747 682 l 194 481 l 747 279 l 747 180 l 80 422 z "},"=":{"ha":909,"x_min":189,"x_max":704,"o":"m 189 416 l 704 416 l 704 318 l 189 318 l 189 416 m 189 643 l 704 643 l 704 545 l 189 545 l 189 643 z "},">":{"ha":909,"x_min":138,"x_max":805,"o":"m 138 279 l 692 481 l 138 682 l 138 781 l 805 539 l 805 422 l 138 180 l 138 279 z "},"?":{"ha":745,"x_min":-5,"x_max":747,"o":"m 238 15 q 217 32 238 15 q 195 105 195 48 q 258 229 195 180 q 400 278 321 278 q 505 243 463 277 q 546 150 546 208 q 482 30 546 78 q 341 -19 418 -19 q 238 15 280 -18 m 209 340 q 203 347 209 340 q 197 402 197 355 q 319 633 197 545 q 440 776 440 721 q 361 887 440 887 q 312 843 323 886 q 302 718 302 799 l -5 636 q 117 889 1 800 q 412 980 234 979 q 660 930 573 980 q 747 793 747 880 q 622 602 747 666 q 498 488 498 538 q 519 399 498 433 l 238 325 q 209 340 220 325 z "},"@":{"ha":1094,"x_min":77,"x_max":1031,"o":"m 585 386 l 585 574 q 576 648 585 628 q 553 669 568 669 q 528 632 537 669 q 519 526 519 595 q 530 374 519 423 q 571 326 541 326 q 585 386 585 326 m 226 125 q 151 197 226 125 q 77 481 77 269 q 221 827 77 674 q 576 980 365 980 q 899 871 767 980 q 1031 610 1031 763 q 983 419 1031 504 q 849 304 935 334 l 657 235 q 624 245 636 235 q 611 273 611 255 l 611 281 q 573 247 595 259 q 532 235 552 235 q 381 302 440 235 q 322 472 322 370 q 383 652 322 578 q 540 726 444 726 q 591 717 558 726 q 656 693 625 707 l 752 726 q 774 718 765 726 q 783 697 783 710 l 783 386 q 789 372 783 372 q 849 420 828 372 q 870 555 870 469 q 774 781 870 693 q 526 869 677 869 q 311 781 385 869 q 237 525 237 692 q 349 248 237 342 q 634 153 461 153 q 836 179 745 153 q 987 255 927 205 l 1010 233 q 837 54 950 126 q 576 -19 724 -19 q 226 125 376 -19 z "},"A":{"ha":905,"x_min":-58,"x_max":943,"o":"m 322 532 l 226 321 l 425 321 l 322 532 m -58 30 q -1 135 -24 86 l 396 968 l 463 968 q 498 944 488 968 l 888 135 q 943 30 911 86 l 943 0 l 481 0 l 481 30 q 505 119 505 83 q 493 178 505 154 l 476 214 l 177 214 l 161 178 q 149 119 149 154 q 173 30 149 87 l 173 0 l -58 0 l -58 30 z "},"B":{"ha":1022,"x_min":35,"x_max":1007,"o":"m 524 578 q 566 612 551 578 q 581 694 581 646 q 489 873 578 873 l 468 873 l 468 578 l 524 578 m 674 187 q 629 370 674 294 q 504 464 584 447 l 468 464 l 468 220 q 499 117 468 151 q 575 83 530 83 q 674 187 674 85 m 358 -7 q 290 -4 358 -7 q 94 0 222 0 l 94 31 q 125 101 116 56 q 135 172 135 146 l 135 769 q 112 845 135 807 q 35 884 90 884 l 35 961 l 515 961 q 816 896 718 961 q 914 730 914 831 q 726 535 914 591 q 942 430 876 505 q 1007 269 1007 355 q 892 71 1007 157 q 579 -16 777 -16 q 358 -7 494 -15 z "},"C":{"ha":981,"x_min":6,"x_max":981,"o":"m 141 109 q 74 173 141 109 q 6 460 7 237 q 197 834 7 687 q 649 981 387 981 q 858 964 776 981 q 981 948 939 948 l 972 637 l 896 637 q 791 836 844 781 q 632 890 738 890 q 440 806 519 890 q 360 566 361 722 q 463 269 360 372 q 743 165 566 165 q 948 225 880 165 l 948 184 q 507 -18 751 -18 q 141 109 275 -18 z "},"D":{"ha":1173,"x_min":29,"x_max":1129,"o":"m 723 152 q 745 185 723 152 q 768 427 768 219 q 697 753 768 632 q 512 875 626 875 l 463 875 l 463 172 q 518 105 473 125 q 608 84 564 84 q 723 152 677 84 m 339 -8 q 300 -4 339 -8 q 88 0 260 0 l 88 31 q 120 102 111 56 q 130 174 130 148 l 130 768 q 102 846 130 812 q 29 882 74 880 l 29 961 l 517 961 q 983 833 837 960 q 1129 495 1129 707 q 978 111 1129 237 q 540 -16 827 -16 q 339 -8 418 -16 z "},"E":{"ha":907,"x_min":29,"x_max":890,"o":"m 652 -1 l 89 -1 l 89 30 q 117 85 105 47 q 130 163 130 124 l 130 777 q 102 850 130 822 q 29 880 75 879 l 29 960 l 665 960 q 857 981 739 960 l 842 662 l 768 662 q 684 814 740 758 q 495 870 629 870 l 462 870 l 462 576 l 536 576 q 629 594 583 576 q 713 649 675 613 l 694 338 l 640 338 q 467 486 608 485 l 462 486 l 462 199 q 553 88 462 88 q 695 141 629 88 q 814 298 762 195 l 890 298 l 852 -20 q 652 -1 745 -1 z "},"F":{"ha":836,"x_min":47,"x_max":875,"o":"m 106 30 q 135 86 123 47 q 147 162 147 126 l 147 776 q 120 850 147 821 q 47 880 92 878 l 47 959 l 682 959 q 875 980 763 959 l 859 661 l 785 661 q 697 817 758 765 q 511 869 637 869 l 479 869 l 479 576 l 554 576 q 647 594 602 576 q 730 649 692 613 l 711 338 l 658 338 q 598 449 642 412 q 485 486 553 486 l 479 486 l 479 162 q 492 86 479 125 q 520 30 504 47 l 519 -1 l 106 -1 l 106 30 z "},"G":{"ha":1067,"x_min":7,"x_max":1033,"o":"m 141 112 q 74 176 141 112 q 7 461 7 240 q 211 842 7 703 q 649 980 414 980 q 856 964 774 980 q 979 947 938 947 l 970 659 l 895 659 q 775 845 828 800 q 632 890 722 890 q 440 804 519 890 q 361 563 361 719 q 427 290 361 399 q 633 180 492 180 q 668 191 652 180 q 684 220 684 202 l 684 253 q 644 368 684 316 q 531 434 603 420 l 531 514 l 1033 514 q 996 431 1022 500 q 970 309 970 361 l 970 145 q 507 -16 808 -16 q 141 112 275 -16 z "},"H":{"ha":1235,"x_min":62,"x_max":1184,"o":"m 62 30 q 91 86 78 45 q 103 171 103 127 l 103 787 q 91 872 103 831 q 62 928 78 913 l 62 959 l 476 959 l 476 928 q 448 872 461 913 q 435 787 435 831 l 435 534 l 811 534 l 811 787 q 798 872 811 831 q 770 928 785 913 l 770 959 l 1184 959 l 1184 928 q 1156 872 1168 913 q 1143 787 1143 831 l 1143 171 q 1156 86 1143 127 q 1184 30 1168 45 l 1184 -1 l 770 -1 l 770 30 q 798 86 785 45 q 811 171 811 127 l 811 433 l 435 433 l 435 171 q 448 86 435 127 q 476 30 461 45 l 476 -1 l 62 -1 l 62 30 z "},"I":{"ha":530,"x_min":62,"x_max":476,"o":"m 62 30 q 91 86 78 45 q 103 171 103 127 l 103 787 q 91 872 103 831 q 62 928 78 913 l 62 959 l 476 959 l 476 928 q 448 872 461 913 q 435 787 435 831 l 435 171 q 448 86 435 127 q 476 30 461 45 l 476 -1 l 62 -1 l 62 30 z "},"J":{"ha":495,"x_min":0,"x_max":460,"o":"m 0 -260 q 75 -154 63 -216 q 87 -8 87 -92 l 87 796 q 75 871 87 833 q 46 928 64 908 l 46 959 l 460 959 l 460 928 q 432 873 445 910 q 419 796 419 836 l 419 51 q 305 -178 419 -79 q 0 -328 191 -277 l 0 -260 z "},"K":{"ha":1121,"x_min":63,"x_max":1196,"o":"m 439 366 l 439 172 q 452 87 439 130 q 480 30 465 44 l 480 -1 l 63 -1 l 63 30 q 92 87 79 44 q 104 172 104 130 l 104 793 q 92 879 104 836 q 63 936 79 922 l 63 966 l 480 966 l 480 936 q 452 879 465 922 q 439 793 439 836 l 439 564 l 707 806 q 739 844 728 826 q 750 885 750 861 q 730 936 750 908 l 730 966 l 1076 966 l 1076 936 q 929 839 1006 898 q 804 735 852 780 l 554 508 q 629 520 598 520 q 707 503 673 520 q 774 448 741 486 l 1017 180 q 1105 103 1048 144 q 1196 60 1162 62 l 1196 -1 l 836 0 q 726 24 782 0 q 644 85 670 48 l 441 363 q 439 366 440 364 z "},"L":{"ha":842,"x_min":62,"x_max":864,"o":"m 626 -1 l 62 -1 l 62 30 q 92 87 80 51 q 103 161 103 123 l 103 796 q 90 872 103 830 q 62 928 77 914 l 62 959 l 476 959 l 476 928 q 450 883 465 922 q 435 796 435 845 l 435 201 q 529 87 435 87 q 676 140 610 87 q 788 296 743 193 l 864 296 l 826 -22 q 626 -1 719 -1 z "},"M":{"ha":1218,"x_min":12,"x_max":1204,"o":"m 488 -8 q 483 -4 488 -8 q 473 9 477 -1 l 235 403 q 191 155 191 167 q 200 98 191 129 q 235 31 212 58 l 235 0 l 12 0 l 12 31 q 63 178 43 81 l 220 974 l 274 974 q 293 967 283 974 q 310 949 303 961 l 629 417 l 897 974 l 950 974 q 969 966 960 974 q 979 949 977 959 l 1147 178 q 1204 31 1169 75 l 1204 0 l 764 0 l 764 31 q 788 90 779 56 q 798 148 798 123 q 758 380 798 162 l 563 -16 l 509 -16 q 488 -8 498 -16 z "},"N":{"ha":1065,"x_min":51,"x_max":1019,"o":"m 221 508 l 221 161 q 233 85 221 124 q 262 28 245 45 l 262 -1 l 51 -1 l 51 28 q 79 84 66 45 q 92 157 91 123 l 92 956 q 116 978 92 978 l 166 978 l 848 452 l 848 798 q 836 872 848 833 q 807 928 825 911 l 808 959 l 1019 959 l 1019 928 q 991 873 1003 913 q 978 802 979 833 l 977 4 q 954 -18 977 -18 l 895 -18 l 221 508 z "},"O":{"ha":1117,"x_min":9,"x_max":1077,"o":"m 699 147 q 707 178 699 147 q 716 350 716 209 q 652 716 716 550 q 494 884 589 882 q 395 813 419 883 q 370 626 370 743 q 441 246 370 407 q 621 85 513 85 q 699 147 681 85 m 163 114 q 86 179 163 114 q 9 481 9 244 q 168 849 9 720 q 543 978 328 978 q 928 842 779 978 q 1077 481 1077 706 q 920 114 1077 244 q 543 -16 762 -16 q 163 114 317 -16 z "},"P":{"ha":940,"x_min":35,"x_max":950,"o":"m 596 537 q 607 552 596 537 q 618 639 618 567 q 582 812 618 753 q 477 871 546 871 l 467 871 l 467 560 q 530 508 467 508 q 596 537 574 508 m 94 30 q 123 90 112 50 q 135 163 135 129 l 135 776 q 108 850 135 822 q 35 880 81 878 l 35 959 l 481 959 q 833 882 716 959 q 950 694 950 805 q 834 502 950 589 q 467 395 718 416 l 467 163 q 479 87 467 125 q 508 30 490 50 l 508 -1 l 94 -1 l 94 30 z "},"Q":{"ha":1086,"x_min":9,"x_max":1340,"o":"m 698 147 q 707 178 698 147 q 716 350 716 209 q 652 717 716 550 q 493 884 588 884 q 394 814 418 883 q 370 631 370 745 q 441 246 370 407 q 621 85 513 85 q 698 147 680 85 m 683 -248 q 622 -209 683 -248 q 449 -10 560 -170 q 167 115 325 -10 q 9 481 9 241 q 169 847 9 715 q 543 978 328 978 q 923 847 769 978 q 1078 481 1078 715 q 1007 214 1078 323 q 823 47 937 105 q 967 -118 871 -40 q 1149 -197 1062 -197 q 1331 -161 1249 -197 l 1340 -201 q 1174 -282 1278 -239 q 941 -326 1070 -326 q 683 -248 806 -326 z "},"R":{"ha":1114,"x_min":35,"x_max":1172,"o":"m 466 867 l 466 544 q 482 549 474 546 q 595 666 595 593 q 549 825 595 781 q 466 867 515 857 m 466 380 l 466 163 q 479 85 466 128 q 507 31 492 43 l 507 0 l 94 0 l 94 31 q 122 87 110 48 q 134 163 134 125 l 134 774 q 107 849 134 821 q 35 878 81 878 l 35 958 l 463 958 q 795 910 663 958 q 927 735 927 861 q 850 587 927 650 q 658 484 774 524 q 763 450 711 484 q 836 390 815 416 l 1002 182 q 1172 60 1099 61 l 1171 0 l 862 1 q 751 16 808 1 q 669 70 694 32 l 466 380 z "},"S":{"ha":823,"x_min":47,"x_max":788,"o":"m 197 -1 q 161 6 197 -1 q 87 14 125 14 q 58 12 73 14 l 67 342 l 144 342 q 246 148 191 216 q 379 80 301 80 q 473 99 444 80 q 503 165 503 117 q 442 269 503 223 q 322 350 381 315 q 115 513 182 436 q 47 688 47 590 q 152 889 47 799 q 406 980 257 980 q 605 964 526 980 q 733 948 684 948 l 724 636 l 647 636 q 564 822 610 759 q 467 885 517 885 q 392 864 422 885 q 362 799 362 844 q 423 663 362 716 q 562 570 484 609 q 733 447 679 509 q 788 293 788 385 q 657 67 788 151 q 382 -16 526 -16 q 197 -1 269 -16 z "},"T":{"ha":866,"x_min":-6,"x_max":907,"o":"m 243 30 q 272 88 260 48 q 284 163 284 128 l 284 885 q 172 836 236 875 q 71 643 109 797 l -6 643 l 14 978 q 117 964 40 969 l 789 964 q 907 978 882 965 l 885 643 l 787 643 q 740 810 787 748 q 616 884 692 871 l 616 163 q 627 93 616 130 q 657 30 638 56 l 657 -1 l 243 -1 l 243 30 z "},"U":{"ha":1046,"x_min":44,"x_max":998,"o":"m 199 60 q 142 99 199 60 q 85 266 85 138 l 85 796 q 73 869 85 829 q 44 928 60 909 l 44 959 l 458 959 l 458 928 q 430 873 444 916 q 417 796 417 830 l 417 307 q 478 139 417 197 q 636 82 538 82 q 777 139 727 82 q 828 307 827 197 l 827 798 q 815 871 827 832 q 787 928 803 910 l 787 959 l 998 959 l 998 928 q 970 872 983 911 q 958 804 958 833 l 957 266 q 856 68 957 156 q 563 -19 754 -19 q 199 60 313 -19 z "},"V":{"ha":909,"x_min":-22,"x_max":979,"o":"m 426 -2 q 423 6 426 -2 q 35 823 420 15 q -22 928 11 873 l -22 959 l 441 959 l 441 928 q 417 840 417 874 q 429 781 417 805 l 600 427 l 761 781 q 772 840 772 808 q 749 928 772 874 l 749 959 l 979 959 l 979 928 q 923 823 945 873 l 526 -19 l 458 -19 q 426 -2 433 -19 z "},"W":{"ha":1263,"x_min":-29,"x_max":1306,"o":"m 343 -12 q 339 -8 343 -12 q 332 6 334 -4 l 49 774 q -29 930 16 865 l -29 959 l 431 959 l 431 928 q 397 841 397 905 q 404 781 397 801 l 494 531 l 671 978 l 734 978 q 755 970 745 978 q 770 952 765 963 l 989 458 l 1107 781 q 1116 837 1116 806 q 1082 928 1116 888 l 1082 959 l 1305 959 l 1306 928 q 1236 779 1267 869 l 945 -19 l 883 -19 q 862 -12 872 -19 q 847 6 852 -4 l 627 500 l 423 -19 l 361 -19 q 343 -12 351 -19 z "},"X":{"ha":1029,"x_min":5,"x_max":1072,"o":"m 5 29 q 145 180 72 73 l 357 490 l 168 779 q 38 928 113 859 l 38 959 l 538 959 l 538 928 q 514 869 514 907 q 530 802 514 827 l 655 612 l 784 802 q 798 867 798 822 q 772 928 798 909 l 772 959 l 1040 959 l 1040 928 q 924 790 977 865 l 729 503 l 939 180 q 1072 30 1006 78 l 1072 -1 l 591 -1 l 591 29 q 618 92 618 54 q 601 157 618 131 l 442 399 l 277 157 q 258 94 258 130 q 291 29 258 49 l 291 -1 l 5 -1 l 5 29 z "},"Y":{"ha":762,"x_min":-56,"x_max":864,"o":"m 214 30 q 243 93 232 49 q 254 183 254 136 l 254 471 l 35 810 q -56 930 -14 886 l -56 959 l 449 959 l 449 930 q 427 878 427 912 q 448 792 427 829 l 515 670 l 604 794 q 621 861 621 818 q 615 895 621 876 q 599 930 610 914 l 599 959 l 864 959 l 864 928 q 741 779 796 853 l 587 562 l 587 183 q 598 92 587 136 q 627 30 609 47 l 627 -1 l 214 -1 l 214 30 z "},"Z":{"ha":926,"x_min":42,"x_max":921,"o":"m 763 -2 q 59 0 726 0 l 59 49 l 494 869 l 481 869 q 251 817 343 869 q 119 661 159 764 l 42 661 l 82 975 q 185 961 140 961 l 863 959 l 863 910 l 433 90 l 449 90 q 688 159 575 90 q 844 340 802 228 l 921 340 l 881 -16 q 763 -2 856 -7 z "},"[":{"ha":482,"x_min":107,"x_max":443,"o":"m 107 962 l 443 962 l 443 860 l 318 860 l 318 -227 l 443 -227 l 443 -328 l 107 -328 l 107 962 z "},"\\":{"ha":401,"x_min":21,"x_max":332,"o":"m 21 980 l 119 980 l 332 -19 l 233 -19 l 21 980 z "},"]":{"ha":485,"x_min":50,"x_max":386,"o":"m 50 -227 l 176 -227 l 176 860 l 50 860 l 50 962 l 386 962 l 386 -328 l 50 -328 l 50 -227 z "},"^":{"ha":909,"x_min":121,"x_max":791,"o":"m 398 962 l 513 962 l 791 481 l 684 481 l 456 876 l 227 481 l 121 481 l 398 962 z "},"_":{"ha":909,"x_min":-5,"x_max":911,"o":"m -5 -227 l 911 -227 l 911 -328 l -5 -328 l -5 -227 z "},"`":{"ha":661,"x_min":155,"x_max":506,"o":"m 155 886 l 155 915 l 307 972 q 324 970 319 972 q 336 961 329 968 l 506 774 l 397 742 l 155 886 z "},"a":{"ha":755,"x_min":25,"x_max":799,"o":"m 404 112 l 404 310 q 349 279 374 304 q 325 198 325 253 q 340 136 325 162 q 386 110 356 110 q 404 112 394 110 m 441 -8 q 430 -3 441 -8 q 410 22 418 2 l 406 32 q 197 -19 272 -19 q 67 14 110 -19 q 25 127 25 47 q 117 271 25 214 q 401 385 208 328 q 391 524 401 483 q 345 566 380 566 q 306 540 323 566 q 290 430 290 514 l 48 366 q 176 584 48 505 q 449 663 304 663 q 703 456 703 663 l 704 149 q 711 110 704 120 q 742 100 719 100 q 792 106 765 100 l 799 53 l 577 -7 q 496 -19 528 -19 q 441 -8 464 -19 z "},"b":{"ha":858,"x_min":-22,"x_max":837,"o":"m 510 114 q 521 132 510 114 q 532 252 532 149 q 499 478 532 391 q 407 565 467 565 q 367 547 388 565 l 367 201 q 393 110 367 142 q 449 79 419 79 q 510 114 488 79 m 275 -1 q 212 8 275 -1 q 111 24 149 17 q 66 86 66 33 l 66 819 q 46 881 66 843 q -22 928 26 920 l -22 954 l 332 1046 q 368 1007 368 1041 l 368 631 q 488 663 415 663 q 751 563 665 663 q 837 326 837 464 q 744 87 837 193 q 466 -18 652 -18 q 275 -1 402 -18 z "},"c":{"ha":723,"x_min":18,"x_max":713,"o":"m 100 75 q 59 122 100 75 q 18 314 18 169 q 130 558 18 454 q 432 663 243 663 q 612 614 548 663 q 700 473 677 566 l 458 408 q 435 525 456 485 q 379 565 414 565 q 319 519 345 565 q 293 386 293 473 q 363 218 293 285 q 537 152 433 152 q 630 173 589 152 q 713 227 671 193 l 713 196 q 580 50 667 119 q 341 -18 493 -18 q 100 75 183 -18 z "},"d":{"ha":840,"x_min":20,"x_max":854,"o":"m 489 94 l 489 478 q 457 536 480 508 q 405 564 435 564 q 346 526 369 564 q 323 376 323 488 q 358 162 326 234 q 449 90 391 90 q 489 94 470 90 m 113 66 q 66 108 113 66 q 20 302 20 150 q 118 553 20 443 q 394 663 216 663 q 489 647 438 663 l 489 826 q 464 890 489 859 q 401 926 438 921 l 401 951 l 755 1046 q 791 1007 791 1041 l 791 144 q 807 115 791 115 q 850 121 828 115 l 854 70 l 525 -18 q 492 5 498 -14 l 490 8 q 368 -18 437 -18 q 113 66 206 -18 z "},"e":{"ha":734,"x_min":19,"x_max":722,"o":"m 389 433 q 419 447 411 433 q 428 473 428 461 q 414 538 428 510 q 378 566 399 566 q 328 533 354 566 q 294 433 302 500 l 389 433 m 104 78 q 62 126 104 78 q 19 313 19 174 q 135 557 19 451 q 433 663 250 663 q 641 570 559 663 q 722 342 722 478 l 294 342 q 361 221 294 292 q 550 151 428 151 q 715 227 625 151 l 715 195 q 576 48 669 115 q 344 -18 484 -18 q 104 78 189 -18 z "},"f":{"ha":525,"x_min":-41,"x_max":760,"o":"m 67 507 l -41 507 l -41 589 l 67 627 q 220 945 67 844 q 563 1046 372 1046 q 684 1002 631 1046 q 760 895 737 957 l 519 829 q 482 914 504 885 q 436 943 460 943 q 388 873 403 943 q 370 708 372 803 q 416 626 376 663 q 510 589 455 589 l 535 589 l 535 507 l 369 507 l 369 172 q 381 88 369 130 q 410 31 394 47 l 410 0 l 67 0 l 67 507 z "},"g":{"ha":843,"x_min":20,"x_max":853,"o":"m 478 311 q 428 490 478 404 q 340 575 378 575 q 304 517 304 575 q 356 340 304 427 q 449 253 408 253 q 478 311 478 253 m 531 -192 q 541 -182 531 -192 q 551 -140 551 -172 q 520 -32 551 -71 q 440 6 490 6 l 426 6 q 361 -45 391 -14 q 331 -101 331 -76 q 371 -183 331 -155 q 471 -211 410 -211 q 531 -192 511 -211 m 404 163 l 385 150 q 369 128 369 138 q 380 114 369 119 q 411 109 392 109 l 484 109 q 771 54 688 109 q 853 -71 853 0 q 683 -248 853 -168 q 351 -328 512 -328 q 103 -299 186 -328 q 20 -199 20 -269 q 113 -82 20 -132 q 319 6 205 -33 l 186 6 q 85 26 119 6 q 52 71 52 47 q 108 123 52 104 l 263 178 q 120 250 199 189 q 41 414 41 311 q 138 591 41 517 q 391 665 236 665 q 536 647 481 665 l 853 647 l 853 563 l 714 519 q 742 414 742 474 q 648 237 742 311 q 404 163 557 165 z "},"h":{"ha":831,"x_min":-14,"x_max":824,"o":"m 74 826 q 49 889 74 858 q -14 926 24 921 l -14 951 l 340 1046 q 376 1006 376 1040 l 376 629 q 456 655 422 647 q 544 663 490 663 q 715 603 646 663 q 783 433 783 543 l 783 192 q 795 108 783 149 q 824 51 808 66 l 824 -1 l 481 -1 l 481 404 q 468 514 481 484 q 430 544 455 544 q 390 506 405 544 q 376 379 376 467 l 376 192 q 388 108 376 149 q 417 51 401 66 l 416 -1 l 74 -1 l 74 826 z "},"i":{"ha":441,"x_min":-16,"x_max":415,"o":"m 91 742 q 70 759 91 742 q 48 833 48 775 q 111 956 48 907 q 253 1005 174 1004 q 358 970 317 1004 q 399 877 399 935 q 335 756 399 805 q 194 708 271 708 q 91 742 134 709 m 72 443 q 53 501 72 467 q -16 542 33 535 l -16 568 l 338 663 q 374 623 374 657 l 374 192 q 387 107 374 148 q 415 51 399 66 l 415 -1 l 72 -1 l 72 443 z "},"j":{"ha":477,"x_min":9,"x_max":424,"o":"m 116 742 q 95 758 116 742 q 73 832 73 775 q 136 956 73 907 q 278 1005 199 1005 q 382 970 341 1005 q 424 877 424 935 q 360 756 424 805 q 219 708 296 708 q 116 742 159 708 m 18 -269 q 87 -178 77 -235 q 98 -77 98 -120 l 98 443 q 78 501 98 467 q 9 542 59 535 l 9 568 l 363 663 q 399 623 399 657 l 399 -19 q 302 -210 397 -137 q 18 -328 208 -283 l 18 -269 z "},"k":{"ha":872,"x_min":-14,"x_max":934,"o":"m 567 9 l 475 145 q 414 188 453 179 q 376 194 393 193 l 376 172 q 388 88 376 130 q 417 31 401 46 l 416 -1 l 74 -1 l 74 826 q 52 887 74 854 q -14 926 31 920 l -14 951 l 340 1046 q 376 1006 376 1040 l 376 347 l 442 395 q 498 453 472 416 q 524 515 524 490 q 500 579 524 539 l 500 588 l 780 663 q 797 610 797 648 q 690 468 797 544 l 493 330 q 595 343 523 343 q 682 320 640 343 q 753 252 724 296 l 859 98 q 880 90 865 90 q 914 96 902 90 l 934 47 l 732 -7 q 644 -19 693 -19 q 567 9 587 -19 z "},"l":{"ha":438,"x_min":-14,"x_max":417,"o":"m 74 826 q 55 884 74 850 q -14 926 35 918 l -14 951 l 340 1046 q 376 1006 376 1040 l 376 172 q 389 86 376 127 q 417 31 401 45 l 417 -1 l 75 -1 l 74 826 z "},"m":{"ha":1242,"x_min":-15,"x_max":1230,"o":"m 73 443 q 46 510 73 481 q -15 542 19 538 l -15 568 l 338 663 q 374 631 374 656 l 374 624 q 439 653 406 643 q 501 663 472 663 q 598 647 549 663 q 693 602 647 632 q 814 647 759 631 q 908 663 870 663 q 1114 595 1040 663 q 1189 416 1189 528 l 1189 172 q 1201 89 1189 130 q 1230 31 1213 47 l 1230 -1 l 887 -1 l 887 404 q 874 513 887 484 q 834 543 861 543 q 782 379 782 543 l 782 172 q 794 88 782 130 q 823 31 806 46 l 823 -1 l 480 -1 l 480 404 q 467 513 480 484 q 427 543 453 543 q 388 501 401 543 q 374 379 374 459 l 374 172 q 387 88 374 130 q 416 31 399 46 l 416 -1 l 73 -1 l 73 443 z "},"n":{"ha":830,"x_min":-15,"x_max":823,"o":"m 73 443 q 46 510 73 481 q -15 542 20 538 l -15 568 l 338 663 q 374 630 374 657 l 374 624 q 500 663 439 663 q 707 595 632 663 q 781 416 781 528 l 781 172 q 794 88 781 130 q 823 31 806 46 l 823 -1 l 479 -1 l 479 404 q 466 513 479 484 q 427 543 453 543 q 388 501 401 543 q 374 379 374 459 l 374 172 q 387 89 374 130 q 415 31 399 47 l 415 -1 l 73 -1 l 73 443 z "},"o":{"ha":768,"x_min":12,"x_max":758,"o":"m 467 114 q 470 131 467 114 q 473 192 473 149 q 425 444 473 323 q 336 564 378 564 q 301 525 307 564 q 296 433 296 486 q 344 203 296 328 q 433 79 392 79 q 467 114 461 79 m 116 81 q 64 131 116 81 q 12 321 12 180 q 114 563 12 463 q 385 663 217 663 q 654 565 552 663 q 758 321 756 467 q 653 79 758 177 q 385 -19 549 -19 q 116 81 220 -19 z "},"p":{"ha":882,"x_min":6,"x_max":865,"o":"m 539 118 q 550 137 539 118 q 562 269 562 157 q 527 489 559 414 q 436 563 494 563 q 397 558 415 563 l 397 164 q 438 101 416 123 q 480 79 460 79 q 539 118 516 79 m 103 -315 q 99 -310 103 -315 q 94 -289 94 -304 l 94 443 q 68 514 94 486 q 6 542 41 542 l 6 568 l 359 663 q 392 644 383 660 l 395 636 q 517 663 448 663 q 781 569 697 663 q 865 342 865 475 q 757 82 865 183 q 494 -18 650 -18 q 396 -2 449 -18 l 396 -109 q 407 -166 396 -138 q 437 -217 417 -195 l 437 -248 l 130 -328 q 103 -315 113 -326 z "},"q":{"ha":883,"x_min":56,"x_max":891,"o":"m 526 97 l 526 455 q 500 539 526 515 q 439 564 474 564 q 382 529 404 564 q 360 393 360 495 q 393 166 360 253 q 486 79 426 79 q 526 97 505 79 m 526 -289 l 526 14 q 405 -18 477 -18 q 146 76 235 -18 q 56 319 56 170 q 151 558 56 454 q 427 663 245 663 q 664 628 566 663 l 793 663 q 818 651 808 663 q 827 623 827 639 l 827 -166 q 843 -195 827 -195 q 886 -189 863 -195 l 891 -240 l 562 -328 q 526 -289 526 -323 z "},"r":{"ha":653,"x_min":-35,"x_max":667,"o":"m 353 640 q 498 663 433 663 q 602 614 558 663 q 667 447 646 565 l 425 382 q 419 511 425 478 q 400 543 413 543 q 369 500 383 543 q 355 376 355 458 l 355 172 q 367 87 355 129 q 396 31 380 46 l 396 -1 l 53 -1 l 53 443 q 22 513 53 484 q -35 542 -9 542 l -35 568 l 319 663 q 353 640 346 662 z "},"s":{"ha":741,"x_min":8,"x_max":710,"o":"m 56 23 q 34 44 56 23 q 8 128 12 64 l 250 198 l 252 195 q 286 106 252 134 q 377 79 320 79 q 406 90 393 79 q 419 118 419 101 q 380 175 419 150 q 265 229 341 200 q 64 343 109 288 q 20 455 20 398 q 129 602 20 541 q 420 663 238 663 q 586 631 532 663 q 653 541 640 600 l 418 477 q 398 539 418 515 q 347 564 378 564 q 322 553 331 564 q 314 526 314 543 q 349 479 314 498 q 456 436 384 460 q 661 336 612 387 q 710 219 710 285 q 574 45 710 109 q 261 -19 438 -19 q 56 23 99 -19 z "},"t":{"ha":563,"x_min":-24,"x_max":590,"o":"m 139 5 q 119 17 139 5 q 100 98 100 28 l 100 506 l -24 506 l -24 574 q 198 694 102 615 q 338 846 294 774 l 404 811 l 404 745 q 454 639 404 690 q 560 588 505 588 l 560 506 l 404 506 l 404 216 q 424 169 404 186 q 480 153 443 153 q 590 168 536 153 l 590 127 q 429 28 524 75 q 252 -19 334 -19 q 139 5 178 -19 z "},"u":{"ha":862,"x_min":-9,"x_max":852,"o":"m 160 38 q 121 66 160 38 q 79 210 81 94 l 79 434 q 53 505 79 473 q -9 543 26 538 l -9 568 l 345 663 q 380 624 380 658 l 380 222 q 393 135 380 165 q 431 104 406 104 q 472 140 458 104 q 486 243 486 176 l 486 439 q 446 555 486 512 l 446 581 l 752 663 q 788 623 788 657 l 788 141 q 804 113 788 113 q 847 121 822 113 l 852 69 l 524 -18 q 484 11 484 -18 l 484 20 q 419 -9 448 0 q 359 -19 391 -19 q 160 38 240 -19 z "},"v":{"ha":752,"x_min":-43,"x_max":736,"o":"m 296 -1 l 54 446 q 10 517 32 486 q -43 556 -12 549 l -43 581 l 260 663 q 278 655 269 663 q 295 635 288 648 l 465 313 l 471 322 q 484 347 477 330 q 491 380 491 363 q 395 581 491 420 l 698 663 q 726 624 716 646 q 736 582 736 602 q 629 367 736 516 l 357 -19 l 321 -19 q 296 -1 306 -19 z "},"w":{"ha":1229,"x_min":-43,"x_max":1213,"o":"m 308 -14 q 304 -11 308 -14 q 296 -1 300 -9 l 51 451 q 5 526 24 504 q -43 556 -15 548 l -43 581 l 260 663 q 278 655 269 663 q 295 635 288 647 l 467 311 l 512 375 q 527 422 527 395 q 492 507 527 462 q 433 556 457 551 l 433 581 l 736 663 q 754 655 745 663 q 771 635 764 647 l 942 313 l 961 342 q 970 376 970 356 q 873 581 970 444 l 1175 663 q 1203 625 1193 646 q 1213 582 1213 603 q 1105 367 1213 517 l 834 -19 l 798 -19 q 784 -14 791 -19 q 772 -1 777 -9 l 597 322 l 357 -19 l 321 -19 q 308 -14 315 -19 z "},"x":{"ha":864,"x_min":-13,"x_max":873,"o":"m 109 19 l -13 178 l 256 251 q 277 225 271 231 q 294 218 284 218 q 304 224 297 218 q 317 239 311 231 l 171 444 q 14 555 107 539 l 14 579 l 325 663 q 340 661 332 663 q 351 655 349 659 l 479 491 q 586 636 558 610 q 654 663 614 663 q 751 625 721 663 l 873 465 l 604 393 q 567 425 580 425 q 556 420 562 425 q 543 405 551 416 l 690 199 q 867 88 762 104 l 867 64 l 535 -19 q 515 -16 520 -19 q 503 -3 510 -14 l 381 153 l 330 77 q 269 4 297 26 q 206 -19 241 -18 q 109 19 139 -19 z "},"y":{"ha":783,"x_min":-94,"x_max":772,"o":"m 24 -290 l -94 -128 l 174 -56 q 220 -94 202 -94 q 248 -72 234 -94 l 330 50 l 82 472 q 41 534 58 514 q -3 562 23 554 l -3 587 l 277 663 q 295 655 285 663 q 312 635 304 648 l 502 311 l 512 328 q 536 388 536 365 q 432 581 536 450 l 733 663 q 762 627 752 648 q 772 582 772 606 q 673 391 772 536 l 266 -233 q 199 -304 237 -279 q 121 -328 162 -328 q 24 -290 54 -328 z "},"z":{"ha":715,"x_min":2,"x_max":724,"o":"m 22 32 q 176 237 87 130 q 340 406 264 343 l 148 406 q 100 398 119 406 q 60 371 81 391 l 40 353 l 2 368 l 93 557 q 145 618 110 592 q 214 644 180 644 l 667 644 l 671 632 l 501 441 q 342 237 389 313 l 563 237 q 667 288 612 237 l 688 307 l 724 300 l 647 86 q 609 25 634 49 q 551 0 583 1 l 37 -1 l 22 32 z "},"{":{"ha":460,"x_min":107,"x_max":421,"o":"m 217 -286 q 187 -264 217 -286 q 157 -163 157 -243 q 168 -13 157 -66 q 178 137 178 41 q 156 220 178 182 q 107 259 134 259 l 107 374 q 156 413 134 374 q 178 496 178 452 q 168 646 178 592 q 157 796 157 700 q 217 919 157 876 q 324 962 276 962 l 421 962 l 421 867 q 371 766 371 867 q 381 616 371 675 q 392 467 392 557 q 373 385 392 433 q 325 317 355 336 q 373 249 355 297 q 392 167 392 200 q 381 17 392 77 q 371 -146 371 -43 q 421 -233 371 -233 l 421 -328 l 324 -328 q 217 -286 276 -328 z "},"|":{"ha":909,"x_min":408,"x_max":502,"o":"m 408 1047 l 502 1047 l 502 -328 l 408 -328 l 408 1047 z "},"}":{"ha":484,"x_min":66,"x_max":380,"o":"m 66 -233 q 116 -146 116 -233 q 105 17 116 -43 q 95 167 95 77 q 114 249 95 200 q 162 317 132 297 q 114 385 132 336 q 95 467 95 433 q 105 616 95 557 q 116 766 116 675 q 66 867 116 867 l 66 962 l 162 962 q 270 919 211 962 q 330 796 330 876 q 319 646 330 700 q 309 496 309 592 q 331 413 309 452 q 380 374 353 374 l 380 259 q 331 220 353 259 q 309 137 309 182 q 319 -13 309 41 q 330 -163 330 -66 q 270 -286 330 -243 q 162 -328 211 -328 l 66 -328 l 66 -233 z "},"~":{"ha":909,"x_min":133,"x_max":781,"o":"m 444 275 q 315 317 387 317 q 157 237 218 317 l 133 326 q 317 418 205 418 q 470 368 403 418 q 598 327 527 327 q 756 408 696 329 l 781 319 q 598 226 711 227 q 444 275 513 226 z "},"¡":{"ha":463,"x_min":44,"x_max":408,"o":"m 85 401 q 65 418 85 401 q 44 494 44 435 q 108 614 44 566 q 249 663 172 663 q 352 629 309 663 q 395 538 395 595 q 332 415 395 463 q 190 366 269 366 q 85 401 126 366 m 77 -325 q 71 -320 77 -325 q 65 -297 65 -314 l 65 121 q 51 243 65 142 l 332 319 q 361 308 349 319 q 374 279 374 296 l 374 -42 q 378 -120 374 -94 q 408 -256 382 -146 l 106 -336 q 77 -325 90 -336 z "},"¢":{"ha":909,"x_min":108,"x_max":803,"o":"m 475 563 q 472 565 475 565 q 416 516 450 565 q 383 386 383 467 q 402 289 383 333 l 475 563 m 253 -268 l 323 -5 q 169 101 230 18 q 108 314 108 183 q 215 553 108 446 q 503 663 321 660 l 576 937 l 666 913 l 598 660 q 741 622 686 652 q 797 528 797 592 q 750 450 797 486 q 572 397 703 414 q 553 490 566 454 l 475 198 q 627 152 536 152 q 803 206 736 152 l 803 134 q 640 30 744 78 q 431 -18 536 -18 q 417 -17 423 -18 l 343 -292 l 253 -268 z "},"£":{"ha":909,"x_min":5,"x_max":906,"o":"m 461 20 q 419 39 461 20 q 312 58 376 58 q 123 37 205 58 q 14 0 40 16 l 5 80 q 90 143 73 104 q 106 215 106 182 l 106 435 l 8 435 l 8 528 l 106 528 l 106 572 q 268 845 107 710 q 602 980 428 980 q 762 952 690 980 q 834 865 834 924 q 734 735 834 763 q 574 694 635 707 q 564 837 574 772 q 518 901 554 901 q 433 787 458 901 q 408 572 408 674 l 408 528 l 627 528 l 627 435 l 408 435 l 408 273 q 384 218 408 245 q 425 223 408 223 q 573 188 486 223 q 731 152 660 152 q 813 162 760 152 q 902 188 866 173 l 906 110 q 756 23 852 64 q 600 -18 660 -18 q 461 20 546 -18 z "},"¤":{"ha":909,"x_min":144,"x_max":766,"o":"m 552 398 q 573 420 552 398 q 595 495 595 441 q 552 592 595 549 q 455 635 509 635 q 358 592 401 635 q 315 495 315 549 q 358 398 315 441 q 455 355 401 355 q 552 398 509 355 m 173 250 l 273 351 q 222 495 222 418 q 250 604 222 553 l 144 711 l 210 777 l 310 677 q 455 728 377 728 q 600 677 532 728 l 699 777 l 766 711 l 659 604 q 688 495 688 553 q 637 350 688 417 l 736 250 l 670 184 l 564 290 q 455 262 513 262 q 345 291 397 262 l 239 184 l 173 250 z "},"¥":{"ha":909,"x_min":-6,"x_max":916,"o":"m 635 191 q 648 101 638 140 q 679 31 660 49 l 679 0 l 264 0 l 264 31 q 296 102 283 50 q 308 191 305 140 l 146 191 l 146 283 l 305 283 l 305 434 l 146 434 l 146 528 l 269 528 l 85 812 q -6 932 42 881 l -6 962 l 500 962 l 500 932 q 478 880 478 914 q 499 794 478 831 l 566 672 l 655 796 q 673 864 673 821 q 650 932 673 899 l 650 962 l 916 962 l 916 931 q 792 781 848 856 l 638 564 l 638 528 l 764 528 l 764 434 l 638 434 l 638 283 l 764 283 l 764 191 l 635 191 z "},"¦":{"ha":909,"x_min":408,"x_max":502,"o":"m 408 292 l 502 292 l 502 -328 l 408 -328 l 408 292 m 408 1047 l 502 1047 l 502 426 l 408 426 l 408 1047 z "},"§":{"ha":909,"x_min":101,"x_max":800,"o":"m 587 275 q 528 320 562 299 q 422 380 494 342 q 283 460 366 410 q 323 400 292 431 q 390 347 353 371 q 494 291 426 323 q 624 218 591 245 q 587 275 615 248 m 229 -286 q 186 -265 229 -286 q 144 -169 144 -244 q 170 -75 144 -118 q 243 -3 196 -33 q 302 -151 243 -56 q 420 -247 361 -247 q 527 -224 489 -247 q 564 -155 564 -201 q 510 -14 564 -72 q 338 97 455 43 q 172 207 242 144 q 101 370 101 270 q 170 565 101 484 q 130 696 130 625 q 224 898 130 813 q 479 982 319 982 q 680 942 602 982 q 758 827 758 901 q 733 737 758 779 q 663 667 707 696 q 609 814 656 726 q 493 903 561 903 q 388 880 423 901 q 352 814 352 858 q 412 675 352 734 q 570 570 471 616 q 726 470 653 532 q 800 306 800 408 q 783 206 800 253 q 736 122 767 159 q 793 -33 793 52 q 688 -244 793 -161 q 433 -328 583 -328 q 229 -286 314 -328 z "},"¨":{"ha":661,"x_min":16,"x_max":645,"o":"m 51 765 q 33 779 51 765 q 16 838 16 792 q 67 937 16 898 q 180 977 117 977 q 264 948 231 977 q 297 873 297 920 q 246 778 297 817 q 135 739 195 739 q 51 765 85 739 m 398 765 q 381 779 398 765 q 364 838 364 792 q 415 937 364 898 q 528 977 465 977 q 612 948 579 977 q 645 873 645 920 q 594 778 645 817 q 479 739 543 739 q 398 765 432 739 z "},"©":{"ha":1143,"x_min":75,"x_max":1074,"o":"m 362 281 q 328 323 362 281 q 294 481 294 364 q 388 680 294 597 q 625 764 482 764 q 756 753 724 764 q 812 743 789 743 l 808 544 l 770 544 q 616 716 743 716 q 494 667 547 716 q 441 529 441 617 q 513 355 441 418 q 690 292 585 292 q 794 326 744 292 l 794 286 q 558 198 674 198 q 362 281 429 198 m 846 209 q 903 265 846 209 q 959 481 959 321 q 846 753 959 640 q 574 866 734 866 q 301 753 414 866 q 189 481 189 640 q 301 209 189 321 q 574 96 414 96 q 846 209 734 96 m 221 127 q 148 201 221 127 q 75 481 75 274 q 221 834 75 688 q 574 980 367 980 q 927 834 781 980 q 1074 481 1074 688 q 927 127 1074 274 q 574 -19 781 -19 q 221 127 367 -19 z "},"ª":{"ha":673,"x_min":53,"x_max":620,"o":"m 329 577 l 328 722 q 290 700 308 718 q 271 640 271 682 q 282 595 271 616 q 315 575 292 575 q 329 577 321 575 m 355 490 q 348 494 355 490 q 334 511 340 498 l 332 517 q 269 494 309 507 q 179 481 229 481 q 85 504 117 481 q 53 587 53 528 q 123 697 53 652 q 328 777 193 742 q 326 877 328 846 q 302 909 323 909 q 272 887 291 909 q 252 811 252 866 l 69 762 q 161 923 69 867 q 363 980 252 980 q 494 944 439 980 q 549 829 549 909 l 550 603 q 555 575 550 583 q 578 568 560 568 q 614 573 595 568 l 620 534 l 457 490 q 398 481 422 481 q 355 490 371 481 z "},"«":{"ha":909,"x_min":184,"x_max":728,"o":"m 453 323 l 659 593 l 728 577 l 654 323 l 728 68 l 659 52 l 453 323 m 184 323 l 390 593 l 458 577 l 385 323 l 458 68 l 390 52 l 184 323 z "},"¬":{"ha":909,"x_min":157,"x_max":755,"o":"m 661 336 l 157 336 l 157 429 l 755 429 l 755 216 l 661 216 l 661 336 z "},"®":{"ha":606,"x_min":53,"x_max":552,"o":"m 308 758 q 313 762 308 758 q 319 777 319 766 q 309 813 319 799 q 283 828 300 827 l 283 747 q 308 758 298 749 m 445 631 l 453 644 q 476 730 476 684 q 453 817 476 777 q 390 880 429 857 q 302 903 350 903 q 215 880 255 903 q 153 818 176 857 q 130 730 130 778 q 153 643 130 683 q 215 581 176 604 q 302 557 255 557 q 390 581 350 557 q 427 610 410 593 l 391 610 q 354 626 367 610 l 291 706 q 283 711 288 709 l 283 650 q 309 625 283 625 l 309 610 l 181 610 l 181 625 q 206 650 206 625 l 206 810 q 181 836 206 836 l 181 851 l 284 851 q 396 795 396 851 q 334 732 396 752 q 378 708 359 732 l 425 650 q 445 631 435 638 m 177 514 q 148 531 177 514 q 86 606 119 548 q 53 730 53 663 q 86 856 53 798 q 178 947 120 913 q 302 980 235 980 q 428 946 370 980 q 519 855 486 913 q 552 730 552 798 q 518 605 552 663 q 427 514 485 547 q 302 481 370 481 q 177 514 235 481 z "},"¯":{"ha":467,"x_min":27,"x_max":439,"o":"m 27 940 l 439 940 l 439 775 l 27 775 l 27 940 z "},"°":{"ha":525,"x_min":53,"x_max":472,"o":"m 345 688 q 361 705 345 688 q 378 770 378 722 q 345 853 378 819 q 262 887 311 887 q 180 853 214 887 q 146 770 146 819 q 180 688 146 722 q 262 654 214 654 q 345 688 311 654 m 114 622 q 84 653 114 622 q 53 770 53 684 q 114 919 53 857 q 262 980 176 980 q 411 919 349 980 q 472 770 472 857 q 411 622 472 684 q 262 561 349 561 q 114 622 176 561 z "},"±":{"ha":909,"x_min":199,"x_max":714,"o":"m 199 229 l 714 229 l 714 136 l 199 136 l 199 229 m 410 500 l 199 500 l 199 593 l 410 593 l 410 804 l 503 804 l 503 593 l 714 593 l 714 500 l 503 500 l 503 289 l 410 289 l 410 500 z "},"²":{"ha":509,"x_min":45,"x_max":463,"o":"m 56 511 q 273 739 258 693 q 288 817 288 784 q 275 901 288 871 q 242 930 262 930 q 214 899 222 930 q 205 827 205 868 l 45 784 q 106 921 49 862 q 264 980 164 980 q 404 947 361 980 q 448 853 448 914 q 425 788 448 819 q 348 708 402 756 l 229 601 l 360 601 q 413 614 397 601 l 433 632 l 463 629 l 416 513 q 374 480 403 480 l 56 480 l 56 511 z "},"³":{"ha":505,"x_min":45,"x_max":461,"o":"m 100 495 q 77 507 100 495 q 45 554 54 519 l 200 595 q 220 542 204 561 q 256 524 237 524 q 292 543 281 524 q 303 607 303 563 q 281 672 303 651 q 195 693 260 693 q 165 688 179 693 l 165 743 q 240 783 211 755 q 272 852 270 812 q 260 910 271 889 q 236 930 248 930 q 211 861 211 930 l 212 840 l 54 798 q 111 928 56 877 q 258 980 166 980 q 384 952 340 980 q 428 871 428 925 q 331 762 428 792 q 429 731 396 762 q 461 644 461 701 q 373 521 461 571 q 197 471 285 471 q 100 495 146 471 z "},"´":{"ha":661,"x_min":155,"x_max":506,"o":"m 155 774 l 326 960 q 338 970 332 968 q 355 972 345 972 l 506 915 l 506 886 l 264 742 l 155 774 z "},"µ":{"ha":885,"x_min":0,"x_max":866,"o":"m 12 -298 q 6 -292 12 -298 q 0 -270 0 -287 q 47 -30 0 -203 q 94 210 94 142 l 94 413 q 65 490 94 458 q 6 522 36 522 l 6 568 l 359 663 q 395 623 395 658 l 395 222 q 446 104 397 104 q 486 139 471 104 q 500 240 500 174 l 501 418 q 460 534 501 491 l 460 580 l 766 662 q 802 623 802 656 l 802 141 q 819 113 803 113 q 861 121 836 113 l 866 69 l 537 -19 q 512 -9 524 -19 q 498 15 500 1 l 498 20 q 433 -10 460 -1 q 374 -19 406 -19 q 281 7 328 -19 q 302 -109 284 -41 q 354 -216 321 -178 l 354 -226 l 41 -309 q 12 -298 24 -309 z "},"¶":{"ha":749,"x_min":53,"x_max":696,"o":"m 315 454 q 130 531 206 454 q 53 716 53 608 q 130 902 53 825 q 315 979 206 979 l 696 979 l 696 -328 l 603 -328 l 603 885 l 408 885 l 408 -328 l 315 -328 l 315 454 z "},"·":{"ha":463,"x_min":56,"x_max":406,"o":"m 99 210 q 78 227 99 210 q 56 300 56 243 q 119 425 56 376 q 263 473 182 473 q 366 438 325 473 q 406 346 406 404 q 342 225 406 274 q 202 177 279 177 q 99 210 142 177 z "},"¸":{"ha":661,"x_min":142,"x_max":518,"o":"m 200 -315 q 180 -309 200 -315 q 142 -264 159 -302 l 279 -227 q 321 -268 283 -268 q 342 -256 334 -268 q 350 -209 350 -243 q 331 -147 350 -170 q 254 -123 311 -123 q 203 -130 224 -123 q 161 -150 183 -137 l 154 -117 l 275 4 l 357 4 l 304 -50 q 351 -43 330 -43 q 518 -170 518 -43 q 443 -282 518 -236 q 294 -328 367 -328 q 200 -315 242 -328 z "},"¹":{"ha":498,"x_min":138,"x_max":361,"o":"m 162 496 q 182 573 182 524 l 182 887 q 179 896 182 892 q 172 900 175 900 q 140 895 152 900 l 138 930 l 321 980 q 340 961 340 977 l 340 574 q 346 527 340 551 q 361 496 351 503 l 361 480 l 162 480 l 162 496 z "},"º":{"ha":652,"x_min":53,"x_max":600,"o":"m 387 579 q 389 592 387 579 q 391 639 391 605 q 355 821 391 733 q 291 908 319 908 q 266 880 271 908 q 262 812 262 851 q 297 639 262 725 q 362 553 333 553 q 387 579 382 554 m 128 554 q 91 591 128 554 q 53 730 53 627 q 128 907 53 834 q 326 980 203 980 q 523 908 449 979 q 600 730 597 836 q 523 553 597 625 q 326 481 449 481 q 128 554 203 481 z "},"»":{"ha":909,"x_min":184,"x_max":728,"o":"m 453 68 l 526 323 l 453 577 l 522 593 l 728 323 l 522 52 l 453 68 m 184 68 l 257 323 l 184 577 l 252 593 l 458 323 l 252 52 l 184 68 z "},"¼":{"ha":1149,"x_min":138,"x_max":1072,"o":"m 162 496 q 182 573 182 524 l 182 887 q 179 896 182 892 q 172 900 175 900 q 140 895 152 900 l 138 930 l 321 980 q 340 961 340 977 l 340 574 q 346 527 340 551 q 361 496 351 503 l 361 480 l 162 480 l 162 496 m 214 7 l 777 983 l 826 954 l 262 -22 l 214 7 m 814 16 q 830 47 825 27 q 834 94 834 68 l 834 121 l 635 121 l 635 151 l 728 279 q 752 347 752 313 q 747 400 752 371 q 719 452 741 430 l 899 500 q 905 471 905 486 q 889 419 905 441 l 756 233 l 834 233 l 834 275 l 991 317 l 991 233 l 1072 233 l 1072 206 l 1015 121 l 991 121 l 991 94 q 997 47 991 70 q 1013 16 1003 24 l 1013 0 l 814 0 l 814 16 z "},"½":{"ha":1189,"x_min":138,"x_max":1065,"o":"m 162 496 q 182 573 182 524 l 182 887 q 179 896 182 892 q 172 900 175 900 q 140 895 152 900 l 138 930 l 321 980 q 340 961 340 977 l 340 574 q 346 527 340 551 q 361 496 351 503 l 361 480 l 162 480 l 162 496 m 214 7 l 777 983 l 826 954 l 262 -22 l 214 7 m 659 31 q 875 258 861 213 q 890 336 890 304 q 877 421 890 391 q 844 450 865 450 q 816 419 825 450 q 807 347 807 388 l 648 304 q 709 441 651 382 q 867 500 766 500 q 1006 467 963 500 q 1050 373 1050 434 q 1027 308 1050 339 q 950 228 1004 276 l 831 121 l 962 121 q 1015 134 1000 121 l 1036 152 l 1065 149 l 1019 33 q 977 0 1005 0 l 659 0 l 659 31 z "},"¾":{"ha":1072,"x_min":45,"x_max":1072,"o":"m 100 495 q 77 507 100 495 q 45 554 54 519 l 200 595 q 220 542 204 561 q 256 524 237 524 q 292 543 281 524 q 303 607 303 563 q 281 672 303 651 q 195 693 260 693 q 165 688 179 693 l 165 743 q 240 783 211 755 q 272 852 270 812 q 260 910 271 889 q 236 930 248 930 q 211 861 211 930 l 212 840 l 54 798 q 111 928 56 877 q 258 980 166 980 q 384 952 340 980 q 428 871 428 925 q 331 762 428 792 q 429 731 396 762 q 461 644 461 701 q 373 521 461 571 q 197 471 285 471 q 100 495 146 471 m 214 7 l 777 983 l 826 954 l 262 -22 l 214 7 m 814 16 q 830 47 825 27 q 834 94 834 68 l 834 121 l 635 121 l 635 151 l 728 279 q 752 347 752 313 q 747 400 752 371 q 719 452 741 430 l 899 500 q 905 471 905 486 q 889 419 905 441 l 756 233 l 834 233 l 834 275 l 991 317 l 991 233 l 1072 233 l 1072 206 l 1015 121 l 991 121 l 991 94 q 997 47 991 70 q 1013 16 1003 24 l 1013 0 l 814 0 l 814 16 z "},"¿":{"ha":745,"x_min":-5,"x_max":747,"o":"m 504 629 q 525 612 504 629 q 546 538 546 595 q 483 414 546 463 q 341 366 420 366 q 237 401 278 366 q 195 494 195 435 q 259 614 195 566 q 400 663 323 663 q 504 629 461 662 m 532 304 q 538 296 532 304 q 544 241 544 289 q 422 11 544 99 q 301 -132 301 -77 q 380 -243 301 -243 q 429 -199 418 -243 q 439 -75 439 -155 l 747 7 q 624 -245 741 -156 q 330 -336 507 -335 q 81 -286 168 -336 q -5 -149 -5 -236 q 119 42 -5 -22 q 243 155 243 106 q 222 244 243 210 l 503 319 q 532 304 521 319 z "},"À":{"ha":905,"x_min":-58,"x_max":943,"o":"m 322 532 l 226 321 l 425 321 l 322 532 m -58 30 q -1 135 -24 86 l 396 968 l 463 968 q 498 944 488 968 l 888 135 q 943 30 911 86 l 943 0 l 481 0 l 481 30 q 505 119 505 83 q 493 178 505 154 l 476 214 l 177 214 l 161 178 q 149 119 149 154 q 173 30 149 87 l 173 0 l -58 0 l -58 30 m 200 1242 l 200 1270 l 351 1327 q 369 1325 364 1327 q 380 1316 374 1324 l 551 1129 l 442 1097 l 200 1242 z "},"Á":{"ha":905,"x_min":-58,"x_max":943,"o":"m 322 532 l 226 321 l 425 321 l 322 532 m -58 30 q -1 135 -24 86 l 396 968 l 463 968 q 498 944 488 968 l 888 135 q 943 30 911 86 l 943 0 l 481 0 l 481 30 q 505 119 505 83 q 493 178 505 154 l 476 214 l 177 214 l 161 178 q 149 119 149 154 q 173 30 149 87 l 173 0 l -58 0 l -58 30 m 336 1129 l 506 1316 q 519 1325 513 1323 q 536 1327 525 1327 l 686 1270 l 686 1242 l 444 1097 l 336 1129 z "},"Â":{"ha":905,"x_min":-58,"x_max":943,"o":"m 322 532 l 226 321 l 425 321 l 322 532 m -58 30 q -1 135 -24 86 l 396 968 l 463 968 q 498 944 488 968 l 888 135 q 943 30 911 86 l 943 0 l 481 0 l 481 30 q 505 119 505 83 q 493 178 505 154 l 476 214 l 177 214 l 161 178 q 149 119 149 154 q 173 30 149 87 l 173 0 l -58 0 l -58 30 m 222 1129 l 415 1316 q 443 1327 427 1327 q 473 1314 460 1327 l 663 1129 l 576 1097 l 443 1152 l 311 1097 l 222 1129 z "},"Ã":{"ha":905,"x_min":-58,"x_max":943,"o":"m 322 532 l 226 321 l 425 321 l 322 532 m -58 30 q -1 135 -24 86 l 396 968 l 463 968 q 498 944 488 968 l 888 135 q 943 30 911 86 l 943 0 l 481 0 l 481 30 q 505 119 505 83 q 493 178 505 154 l 476 214 l 177 214 l 161 178 q 149 119 149 154 q 173 30 149 87 l 173 0 l -58 0 l -58 30 m 459 1106 q 443 1113 459 1106 q 400 1145 427 1120 q 360 1169 385 1158 q 311 1181 335 1181 q 280 1170 293 1181 q 254 1138 268 1160 l 212 1138 q 250 1267 212 1202 q 347 1333 288 1333 q 427 1313 395 1333 q 510 1258 459 1293 q 528 1247 519 1252 q 566 1242 538 1242 q 604 1255 590 1242 q 631 1293 617 1267 l 673 1293 q 632 1158 673 1223 q 532 1093 590 1093 q 459 1106 490 1093 z "},"Ä":{"ha":905,"x_min":-58,"x_max":943,"o":"m 322 532 l 226 321 l 425 321 l 322 532 m -58 30 q -1 135 -24 86 l 396 968 l 463 968 q 498 944 488 968 l 888 135 q 943 30 911 86 l 943 0 l 481 0 l 481 30 q 505 119 505 83 q 493 178 505 154 l 476 214 l 177 214 l 161 178 q 149 119 149 154 q 173 30 149 87 l 173 0 l -58 0 l -58 30 m 163 1121 q 146 1134 163 1121 q 129 1193 129 1147 q 179 1293 129 1253 q 293 1332 230 1332 q 377 1304 344 1332 q 410 1229 410 1276 q 359 1133 410 1172 q 248 1094 308 1094 q 163 1121 197 1094 m 511 1121 q 494 1134 511 1121 q 477 1193 477 1147 q 527 1293 477 1253 q 641 1332 578 1332 q 725 1304 692 1332 q 758 1229 758 1276 q 706 1133 758 1172 q 592 1094 655 1094 q 511 1121 545 1094 z "},"Å":{"ha":905,"x_min":-58,"x_max":943,"o":"m 322 532 l 226 321 l 425 321 l 322 532 m -58 30 q -1 135 -24 86 l 396 968 l 463 968 q 498 944 488 968 l 888 135 q 943 30 911 86 l 943 0 l 481 0 l 481 30 q 505 119 505 83 q 493 178 505 154 l 476 214 l 177 214 l 161 178 q 149 119 149 154 q 173 30 149 87 l 173 0 l -58 0 l -58 30 m 480 1139 q 487 1147 480 1139 q 495 1176 495 1154 q 480 1212 495 1197 q 443 1227 465 1227 q 407 1212 422 1227 q 391 1176 391 1197 q 407 1139 391 1154 q 443 1124 422 1124 q 480 1139 465 1124 m 333 1065 q 310 1088 333 1065 q 287 1176 287 1111 q 333 1286 287 1240 q 443 1332 378 1332 q 554 1286 508 1332 q 600 1176 600 1240 q 554 1065 600 1111 q 443 1019 508 1019 q 333 1065 378 1019 z "},"Æ":{"ha":1297,"x_min":-79,"x_max":1281,"o":"m 519 400 l 519 770 l 305 400 l 519 400 m 1042 -1 l 479 -1 l 479 29 q 509 91 498 54 q 519 171 519 128 l 519 298 l 246 298 l 153 137 q 141 98 141 118 q 151 65 141 83 q 176 30 160 46 l 176 -1 l -79 -1 l -79 26 q -23 84 -52 48 q 21 148 6 121 l 489 960 l 1055 961 q 1248 981 1129 961 l 1232 663 l 1158 663 q 1069 819 1126 766 q 885 871 1012 871 l 852 871 l 852 576 l 927 576 q 1019 595 973 576 q 1103 650 1065 614 l 1084 338 l 1031 338 q 971 449 1015 411 q 862 487 928 487 l 852 487 l 852 201 q 872 119 852 149 q 930 89 892 90 l 944 89 q 1204 298 1099 89 l 1281 298 l 1242 -21 q 1042 -1 1136 -1 z "},"Ç":{"ha":981,"x_min":6,"x_max":981,"o":"m 364 -315 q 343 -309 364 -315 q 306 -264 322 -302 l 443 -227 q 485 -268 447 -268 q 506 -252 498 -268 q 513 -209 513 -237 q 494 -147 513 -170 q 417 -123 475 -123 q 367 -132 387 -124 q 325 -150 347 -139 l 317 -117 l 421 -14 q 128 121 249 6 q 6 460 7 237 q 197 834 7 687 q 649 981 387 981 q 858 964 776 981 q 981 948 939 948 l 972 637 l 896 637 q 791 836 844 781 q 632 890 738 890 q 440 806 519 890 q 360 566 361 722 q 463 269 360 372 q 743 165 566 165 q 948 225 880 165 l 948 184 q 507 -18 751 -18 q 498 -18 503 -18 l 467 -50 q 515 -43 494 -43 q 682 -170 682 -43 q 606 -282 682 -236 q 458 -328 530 -328 q 364 -315 406 -328 z "},"È":{"ha":907,"x_min":29,"x_max":890,"o":"m 652 -1 l 89 -1 l 89 30 q 117 85 105 47 q 130 163 130 124 l 130 777 q 102 850 130 822 q 29 880 75 879 l 29 960 l 665 960 q 857 981 739 960 l 842 662 l 768 662 q 684 814 740 758 q 495 870 629 870 l 462 870 l 462 576 l 536 576 q 629 594 583 576 q 713 649 675 613 l 694 338 l 640 338 q 467 486 608 485 l 462 486 l 462 199 q 553 88 462 88 q 695 141 629 88 q 814 298 762 195 l 890 298 l 852 -20 q 652 -1 745 -1 m 226 1242 l 226 1270 l 377 1327 q 395 1325 390 1327 q 406 1316 399 1324 l 576 1129 l 468 1097 l 226 1242 z "},"É":{"ha":907,"x_min":29,"x_max":890,"o":"m 652 -1 l 89 -1 l 89 30 q 117 85 105 47 q 130 163 130 124 l 130 777 q 102 850 130 822 q 29 880 75 879 l 29 960 l 665 960 q 857 981 739 960 l 842 662 l 768 662 q 684 814 740 758 q 495 870 629 870 l 462 870 l 462 576 l 536 576 q 629 594 583 576 q 713 649 675 613 l 694 338 l 640 338 q 467 486 608 485 l 462 486 l 462 199 q 553 88 462 88 q 695 141 629 88 q 814 298 762 195 l 890 298 l 852 -20 q 652 -1 745 -1 m 341 1129 l 511 1316 q 524 1325 518 1323 q 541 1327 530 1327 l 692 1270 l 692 1242 l 450 1097 l 341 1129 z "},"Ê":{"ha":907,"x_min":29,"x_max":890,"o":"m 652 -1 l 89 -1 l 89 30 q 117 85 105 47 q 130 163 130 124 l 130 777 q 102 850 130 822 q 29 880 75 879 l 29 960 l 665 960 q 857 981 739 960 l 842 662 l 768 662 q 684 814 740 758 q 495 870 629 870 l 462 870 l 462 576 l 536 576 q 629 594 583 576 q 713 649 675 613 l 694 338 l 640 338 q 467 486 608 485 l 462 486 l 462 199 q 553 88 462 88 q 695 141 629 88 q 814 298 762 195 l 890 298 l 852 -20 q 652 -1 745 -1 m 239 1129 l 432 1316 q 460 1327 444 1327 q 490 1314 477 1327 l 680 1129 l 593 1097 l 460 1152 l 328 1097 l 239 1129 z "},"Ë":{"ha":907,"x_min":29,"x_max":890,"o":"m 652 -1 l 89 -1 l 89 30 q 117 85 105 47 q 130 163 130 124 l 130 777 q 102 850 130 822 q 29 880 75 879 l 29 960 l 665 960 q 857 981 739 960 l 842 662 l 768 662 q 684 814 740 758 q 495 870 629 870 l 462 870 l 462 576 l 536 576 q 629 594 583 576 q 713 649 675 613 l 694 338 l 640 338 q 467 486 608 485 l 462 486 l 462 199 q 553 88 462 88 q 695 141 629 88 q 814 298 762 195 l 890 298 l 852 -20 q 652 -1 745 -1 m 180 1121 q 163 1134 180 1121 q 146 1193 146 1147 q 196 1293 146 1253 q 310 1332 247 1332 q 394 1304 361 1332 q 427 1229 427 1276 q 376 1133 427 1172 q 264 1094 325 1094 q 180 1121 214 1094 m 528 1121 q 511 1134 528 1121 q 494 1193 494 1147 q 544 1293 494 1253 q 658 1332 595 1332 q 742 1304 709 1332 q 774 1229 774 1276 q 723 1133 774 1172 q 609 1094 672 1094 q 528 1121 562 1094 z "},"Ì":{"ha":530,"x_min":35,"x_max":476,"o":"m 62 30 q 91 86 78 45 q 103 171 103 127 l 103 787 q 91 872 103 831 q 62 928 78 913 l 62 959 l 476 959 l 476 928 q 448 872 461 913 q 435 787 435 831 l 435 171 q 448 86 435 127 q 476 30 461 45 l 476 -1 l 62 -1 l 62 30 m 35 1242 l 35 1270 l 186 1327 q 204 1325 199 1327 q 216 1316 209 1324 l 386 1129 l 277 1097 l 35 1242 z "},"Í":{"ha":530,"x_min":62,"x_max":503,"o":"m 62 30 q 91 86 78 45 q 103 171 103 127 l 103 787 q 91 872 103 831 q 62 928 78 913 l 62 959 l 476 959 l 476 928 q 448 872 461 913 q 435 787 435 831 l 435 171 q 448 86 435 127 q 476 30 461 45 l 476 -1 l 62 -1 l 62 30 m 153 1129 l 323 1316 q 336 1325 330 1323 q 353 1327 342 1327 l 503 1270 l 503 1242 l 261 1097 l 153 1129 z "},"Î":{"ha":530,"x_min":49,"x_max":490,"o":"m 62 30 q 91 86 78 45 q 103 171 103 127 l 103 787 q 91 872 103 831 q 62 928 78 913 l 62 959 l 476 959 l 476 928 q 448 872 461 913 q 435 787 435 831 l 435 171 q 448 86 435 127 q 476 30 461 45 l 476 -1 l 62 -1 l 62 30 m 49 1129 l 241 1316 q 269 1327 253 1327 q 299 1314 286 1327 l 490 1129 l 402 1097 l 269 1152 l 137 1097 l 49 1129 z "},"Ï":{"ha":530,"x_min":-45,"x_max":584,"o":"m 62 30 q 91 86 78 45 q 103 171 103 127 l 103 787 q 91 872 103 831 q 62 928 78 913 l 62 959 l 476 959 l 476 928 q 448 872 461 913 q 435 787 435 831 l 435 171 q 448 86 435 127 q 476 30 461 45 l 476 -1 l 62 -1 l 62 30 m -11 1121 q -28 1134 -11 1121 q -45 1193 -45 1147 q 6 1293 -45 1253 q 119 1332 56 1332 q 203 1304 170 1332 q 236 1229 236 1276 q 185 1133 236 1172 q 74 1094 134 1094 q -11 1121 24 1094 m 337 1121 q 320 1134 337 1121 q 303 1193 303 1147 q 354 1293 303 1253 q 467 1332 404 1332 q 551 1304 518 1332 q 584 1229 584 1276 q 533 1133 584 1172 q 418 1094 481 1094 q 337 1121 371 1094 z "},"Ð":{"ha":1173,"x_min":-7,"x_max":1129,"o":"m 725 162 q 746 201 725 162 q 768 426 768 241 q 696 752 768 631 q 511 873 625 873 l 462 873 l 462 523 l 614 523 l 614 421 l 462 421 l 462 171 q 518 104 472 125 q 612 83 564 83 q 725 162 683 83 m 341 -8 q 276 -4 341 -8 q 142 0 211 0 l 89 0 l 89 31 q 121 101 111 56 q 130 173 130 147 l 130 421 l -7 421 l -7 523 l 130 523 l 130 767 q 104 841 130 801 q 30 881 78 881 l 30 960 l 517 960 q 983 832 837 958 q 1129 494 1129 706 q 977 111 1129 238 q 540 -16 825 -16 q 341 -8 471 -16 z "},"Ñ":{"ha":1065,"x_min":51,"x_max":1019,"o":"m 221 508 l 221 161 q 233 85 221 124 q 262 28 245 45 l 262 -1 l 51 -1 l 51 28 q 79 84 66 45 q 92 157 91 123 l 92 956 q 116 978 92 978 l 166 978 l 848 452 l 848 798 q 836 872 848 833 q 807 928 825 911 l 808 959 l 1019 959 l 1019 928 q 991 873 1003 913 q 978 802 979 833 l 977 4 q 954 -18 977 -18 l 895 -18 l 221 508 m 551 1106 q 535 1113 551 1106 q 492 1145 519 1120 q 452 1169 477 1158 q 404 1181 427 1181 q 373 1170 385 1181 q 346 1138 360 1160 l 304 1138 q 342 1267 304 1202 q 439 1333 380 1333 q 519 1313 488 1333 q 602 1258 551 1293 q 621 1247 611 1252 q 659 1242 630 1242 q 696 1255 682 1242 q 724 1293 709 1267 l 766 1293 q 724 1158 766 1223 q 624 1093 682 1093 q 551 1106 583 1093 z "},"Ò":{"ha":1117,"x_min":9,"x_max":1077,"o":"m 699 147 q 707 178 699 147 q 716 350 716 209 q 652 716 716 550 q 494 884 589 882 q 395 813 419 883 q 370 626 370 743 q 441 246 370 407 q 621 85 513 85 q 699 147 681 85 m 163 114 q 86 179 163 114 q 9 481 9 244 q 168 849 9 720 q 543 978 328 978 q 928 842 779 978 q 1077 481 1077 706 q 920 114 1077 244 q 543 -16 762 -16 q 163 114 317 -16 m 300 1242 l 300 1270 l 451 1327 q 469 1325 464 1327 q 480 1316 473 1324 l 650 1129 l 542 1097 l 300 1242 z "},"Ó":{"ha":1117,"x_min":9,"x_max":1077,"o":"m 699 147 q 707 178 699 147 q 716 350 716 209 q 652 716 716 550 q 494 884 589 882 q 395 813 419 883 q 370 626 370 743 q 441 246 370 407 q 621 85 513 85 q 699 147 681 85 m 163 114 q 86 179 163 114 q 9 481 9 244 q 168 849 9 720 q 543 978 328 978 q 928 842 779 978 q 1077 481 1077 706 q 920 114 1077 244 q 543 -16 762 -16 q 163 114 317 -16 m 435 1129 l 606 1316 q 618 1325 612 1323 q 635 1327 625 1327 l 786 1270 l 786 1242 l 544 1097 l 435 1129 z "},"Ô":{"ha":1117,"x_min":9,"x_max":1077,"o":"m 699 147 q 707 178 699 147 q 716 350 716 209 q 652 716 716 550 q 494 884 589 882 q 395 813 419 883 q 370 626 370 743 q 441 246 370 407 q 621 85 513 85 q 699 147 681 85 m 163 114 q 86 179 163 114 q 9 481 9 244 q 168 849 9 720 q 543 978 328 978 q 928 842 779 978 q 1077 481 1077 706 q 920 114 1077 244 q 543 -16 762 -16 q 163 114 317 -16 m 323 1129 l 515 1316 q 543 1327 527 1327 q 573 1314 560 1327 l 764 1129 l 676 1097 l 543 1152 l 411 1097 l 323 1129 z "},"Õ":{"ha":1117,"x_min":9,"x_max":1077,"o":"m 699 147 q 707 178 699 147 q 716 350 716 209 q 652 716 716 550 q 494 884 589 882 q 395 813 419 883 q 370 626 370 743 q 441 246 370 407 q 621 85 513 85 q 699 147 681 85 m 163 114 q 86 179 163 114 q 9 481 9 244 q 168 849 9 720 q 543 978 328 978 q 928 842 779 978 q 1077 481 1077 706 q 920 114 1077 244 q 543 -16 762 -16 q 163 114 317 -16 m 559 1106 q 543 1113 559 1106 q 500 1145 528 1120 q 460 1169 486 1158 q 412 1181 435 1181 q 381 1170 393 1181 q 354 1138 368 1160 l 313 1138 q 350 1267 313 1202 q 448 1333 388 1333 q 528 1313 496 1333 q 610 1258 559 1293 q 629 1247 619 1252 q 667 1242 638 1242 q 704 1255 690 1242 q 732 1293 718 1267 l 774 1293 q 732 1158 774 1223 q 632 1093 690 1093 q 559 1106 591 1093 z "},"Ö":{"ha":1117,"x_min":9,"x_max":1077,"o":"m 699 147 q 707 178 699 147 q 716 350 716 209 q 652 716 716 550 q 494 884 589 882 q 395 813 419 883 q 370 626 370 743 q 441 246 370 407 q 621 85 513 85 q 699 147 681 85 m 163 114 q 86 179 163 114 q 9 481 9 244 q 168 849 9 720 q 543 978 328 978 q 928 842 779 978 q 1077 481 1077 706 q 920 114 1077 244 q 543 -16 762 -16 q 163 114 317 -16 m 263 1121 q 246 1134 263 1121 q 229 1193 229 1147 q 279 1293 229 1253 q 393 1332 330 1332 q 476 1304 444 1332 q 509 1229 509 1276 q 458 1133 509 1172 q 347 1094 408 1094 q 263 1121 297 1094 m 610 1121 q 593 1134 610 1121 q 576 1193 576 1147 q 627 1293 576 1253 q 741 1332 677 1332 q 824 1304 791 1332 q 857 1229 857 1276 q 806 1133 857 1172 q 692 1094 755 1094 q 610 1121 644 1094 z "},"×":{"ha":909,"x_min":195,"x_max":718,"o":"m 456 408 l 267 218 l 195 290 l 385 480 l 195 670 l 267 741 l 456 551 l 646 741 l 718 670 l 528 480 l 718 290 l 646 218 l 456 408 z "},"Ø":{"ha":1118,"x_min":9,"x_max":1078,"o":"m 667 673 q 602 821 648 756 q 493 886 555 886 q 400 830 431 886 q 370 634 370 774 q 393 399 370 506 l 667 673 m 698 148 q 707 179 698 148 q 716 351 716 210 q 695 569 716 467 l 422 296 q 488 165 442 245 q 621 86 534 86 q 698 148 680 86 m 214 88 l 136 9 l 70 75 l 144 150 q 9 482 9 290 q 163 833 9 686 q 543 981 317 981 q 871 876 730 981 l 950 956 l 1016 890 l 941 815 q 1078 482 1078 675 q 917 128 1078 273 q 543 -16 756 -16 q 214 88 355 -16 z "},"Ù":{"ha":1046,"x_min":44,"x_max":998,"o":"m 199 60 q 142 99 199 60 q 85 266 85 138 l 85 796 q 73 869 85 829 q 44 928 60 909 l 44 959 l 458 959 l 458 928 q 430 873 444 916 q 417 796 417 830 l 417 307 q 478 139 417 197 q 636 82 538 82 q 777 139 727 82 q 828 307 827 197 l 827 798 q 815 871 827 832 q 787 928 803 910 l 787 959 l 998 959 l 998 928 q 970 872 983 911 q 958 804 958 833 l 957 266 q 856 68 957 156 q 563 -19 754 -19 q 199 60 313 -19 m 346 1242 l 346 1270 l 497 1327 q 515 1325 510 1327 q 526 1316 519 1324 l 696 1129 l 588 1097 l 346 1242 z "},"Ú":{"ha":1046,"x_min":44,"x_max":998,"o":"m 199 60 q 142 99 199 60 q 85 266 85 138 l 85 796 q 73 869 85 829 q 44 928 60 909 l 44 959 l 458 959 l 458 928 q 430 873 444 916 q 417 796 417 830 l 417 307 q 478 139 417 197 q 636 82 538 82 q 777 139 727 82 q 828 307 827 197 l 827 798 q 815 871 827 832 q 787 928 803 910 l 787 959 l 998 959 l 998 928 q 970 872 983 911 q 958 804 958 833 l 957 266 q 856 68 957 156 q 563 -19 754 -19 q 199 60 313 -19 m 481 1129 l 652 1316 q 665 1325 659 1323 q 682 1327 671 1327 l 832 1270 l 832 1242 l 590 1097 l 481 1129 z "},"Û":{"ha":1046,"x_min":44,"x_max":998,"o":"m 199 60 q 142 99 199 60 q 85 266 85 138 l 85 796 q 73 869 85 829 q 44 928 60 909 l 44 959 l 458 959 l 458 928 q 430 873 444 916 q 417 796 417 830 l 417 307 q 478 139 417 197 q 636 82 538 82 q 777 139 727 82 q 828 307 827 197 l 827 798 q 815 871 827 832 q 787 928 803 910 l 787 959 l 998 959 l 998 928 q 970 872 983 911 q 958 804 958 833 l 957 266 q 856 68 957 156 q 563 -19 754 -19 q 199 60 313 -19 m 369 1129 l 562 1316 q 589 1327 573 1327 q 619 1314 606 1327 l 810 1129 l 722 1097 l 589 1152 l 457 1097 l 369 1129 z "},"Ü":{"ha":1046,"x_min":44,"x_max":998,"o":"m 199 60 q 142 99 199 60 q 85 266 85 138 l 85 796 q 73 869 85 829 q 44 928 60 909 l 44 959 l 458 959 l 458 928 q 430 873 444 916 q 417 796 417 830 l 417 307 q 478 139 417 197 q 636 82 538 82 q 777 139 727 82 q 828 307 827 197 l 827 798 q 815 871 827 832 q 787 928 803 910 l 787 959 l 998 959 l 998 928 q 970 872 983 911 q 958 804 958 833 l 957 266 q 856 68 957 156 q 563 -19 754 -19 q 199 60 313 -19 m 309 1121 q 292 1134 309 1121 q 275 1193 275 1147 q 325 1293 275 1253 q 439 1332 376 1332 q 523 1304 490 1332 q 555 1229 555 1276 q 505 1133 555 1172 q 393 1094 454 1094 q 309 1121 343 1094 m 656 1121 q 640 1134 656 1121 q 623 1193 623 1147 q 673 1293 623 1253 q 787 1332 724 1332 q 870 1304 838 1332 q 903 1229 903 1276 q 852 1133 903 1172 q 738 1094 801 1094 q 656 1121 690 1094 z "},"Ý":{"ha":762,"x_min":-56,"x_max":864,"o":"m 214 30 q 243 93 232 49 q 254 183 254 136 l 254 471 l 35 810 q -56 930 -14 886 l -56 959 l 449 959 l 449 930 q 427 878 427 912 q 448 792 427 829 l 515 670 l 604 794 q 621 861 621 818 q 615 895 621 876 q 599 930 610 914 l 599 959 l 864 959 l 864 928 q 741 779 796 853 l 587 562 l 587 183 q 598 92 587 136 q 627 30 609 47 l 627 -1 l 214 -1 l 214 30 m 287 1129 l 457 1316 q 470 1325 464 1323 q 487 1327 476 1327 l 637 1270 l 637 1242 l 395 1097 l 287 1129 z "},"Þ":{"ha":848,"x_min":35,"x_max":858,"o":"m 525 340 q 538 354 525 340 q 551 444 551 368 q 517 615 551 555 q 418 675 484 675 l 408 675 l 408 328 q 458 313 422 313 q 525 340 500 313 m 35 31 q 63 88 51 47 q 75 172 75 130 l 75 788 q 63 871 75 830 q 35 929 51 913 l 35 960 l 448 960 l 448 929 q 420 871 432 913 q 408 788 408 830 l 408 764 l 421 764 q 751 689 644 764 q 858 502 858 613 q 684 281 858 359 q 408 201 511 203 l 408 172 q 420 88 408 130 q 448 31 432 47 l 448 0 l 35 0 l 35 31 z "},"ß":{"ha":1016,"x_min":81,"x_max":1022,"o":"m 523 14 q 493 30 523 14 q 431 110 463 46 l 637 167 q 661 100 646 127 q 690 73 675 73 q 712 82 703 73 q 720 108 720 91 q 683 194 720 155 q 585 260 646 233 q 478 330 528 286 q 429 448 429 374 q 459 546 429 503 q 543 637 490 589 q 606 702 585 674 q 627 758 627 729 q 597 849 627 814 q 506 883 568 883 q 407 842 433 883 q 382 744 382 802 l 382 199 q 396 111 382 155 q 425 51 409 68 l 425 -1 l 81 -1 l 81 675 q 218 894 81 810 q 592 979 355 979 q 845 929 762 979 q 928 802 928 880 q 895 705 928 747 q 805 619 862 663 q 750 569 769 590 q 731 530 731 549 q 774 450 731 482 q 858 395 817 417 q 943 345 908 370 q 1000 283 977 319 q 1022 199 1022 247 q 905 39 1022 97 q 663 -19 789 -19 q 523 14 583 -19 z "},"à":{"ha":755,"x_min":25,"x_max":799,"o":"m 404 112 l 404 310 q 349 279 374 304 q 325 198 325 253 q 340 136 325 162 q 386 110 356 110 q 404 112 394 110 m 441 -8 q 430 -3 441 -8 q 410 22 418 2 l 406 32 q 197 -19 272 -19 q 67 14 110 -19 q 25 127 25 47 q 117 271 25 214 q 401 385 208 328 q 391 524 401 483 q 345 566 380 566 q 306 540 323 566 q 290 430 290 514 l 48 366 q 176 584 48 505 q 449 663 304 663 q 703 456 703 663 l 704 149 q 711 110 704 120 q 742 100 719 100 q 792 106 765 100 l 799 53 l 577 -7 q 496 -19 528 -19 q 441 -8 464 -19 m 197 886 l 197 915 l 349 972 q 366 970 361 972 q 378 961 371 968 l 548 774 l 439 742 l 197 886 z "},"á":{"ha":755,"x_min":25,"x_max":799,"o":"m 404 112 l 404 310 q 349 279 374 304 q 325 198 325 253 q 340 136 325 162 q 386 110 356 110 q 404 112 394 110 m 441 -8 q 430 -3 441 -8 q 410 22 418 2 l 406 32 q 197 -19 272 -19 q 67 14 110 -19 q 25 127 25 47 q 117 271 25 214 q 401 385 208 328 q 391 524 401 483 q 345 566 380 566 q 306 540 323 566 q 290 430 290 514 l 48 366 q 176 584 48 505 q 449 663 304 663 q 703 456 703 663 l 704 149 q 711 110 704 120 q 742 100 719 100 q 792 106 765 100 l 799 53 l 577 -7 q 496 -19 528 -19 q 441 -8 464 -19 m 306 774 l 476 960 q 489 970 483 968 q 506 972 495 972 l 656 915 l 656 886 l 414 742 l 306 774 z "},"â":{"ha":755,"x_min":25,"x_max":799,"o":"m 404 112 l 404 310 q 349 279 374 304 q 325 198 325 253 q 340 136 325 162 q 386 110 356 110 q 404 112 394 110 m 441 -8 q 430 -3 441 -8 q 410 22 418 2 l 406 32 q 197 -19 272 -19 q 67 14 110 -19 q 25 127 25 47 q 117 271 25 214 q 401 385 208 328 q 391 524 401 483 q 345 566 380 566 q 306 540 323 566 q 290 430 290 514 l 48 366 q 176 584 48 505 q 449 663 304 663 q 703 456 703 663 l 704 149 q 711 110 704 120 q 742 100 719 100 q 792 106 765 100 l 799 53 l 577 -7 q 496 -19 528 -19 q 441 -8 464 -19 m 206 774 l 399 960 q 427 972 410 972 q 456 959 444 972 l 647 774 l 559 742 l 427 796 l 294 742 l 206 774 z "},"ã":{"ha":755,"x_min":25,"x_max":799,"o":"m 404 112 l 404 310 q 349 279 374 304 q 325 198 325 253 q 340 136 325 162 q 386 110 356 110 q 404 112 394 110 m 441 -8 q 430 -3 441 -8 q 410 22 418 2 l 406 32 q 197 -19 272 -19 q 67 14 110 -19 q 25 127 25 47 q 117 271 25 214 q 401 385 208 328 q 391 524 401 483 q 345 566 380 566 q 306 540 323 566 q 290 430 290 514 l 48 366 q 176 584 48 505 q 449 663 304 663 q 703 456 703 663 l 704 149 q 711 110 704 120 q 742 100 719 100 q 792 106 765 100 l 799 53 l 577 -7 q 496 -19 528 -19 q 441 -8 464 -19 m 443 751 q 427 758 443 751 q 384 789 411 765 q 344 814 369 802 q 295 825 319 825 q 264 815 277 825 q 237 783 252 804 l 196 783 q 234 912 196 846 q 331 977 271 977 q 411 958 379 977 q 494 903 443 938 q 512 892 503 897 q 550 887 522 887 q 587 899 574 887 q 615 937 601 911 l 657 937 q 615 802 657 867 q 515 737 574 737 q 443 751 474 737 z "},"ä":{"ha":755,"x_min":25,"x_max":799,"o":"m 404 112 l 404 310 q 349 279 374 304 q 325 198 325 253 q 340 136 325 162 q 386 110 356 110 q 404 112 394 110 m 441 -8 q 430 -3 441 -8 q 410 22 418 2 l 406 32 q 197 -19 272 -19 q 67 14 110 -19 q 25 127 25 47 q 117 271 25 214 q 401 385 208 328 q 391 524 401 483 q 345 566 380 566 q 306 540 323 566 q 290 430 290 514 l 48 366 q 176 584 48 505 q 449 663 304 663 q 703 456 703 663 l 704 149 q 711 110 704 120 q 742 100 719 100 q 792 106 765 100 l 799 53 l 577 -7 q 496 -19 528 -19 q 441 -8 464 -19 m 147 765 q 130 779 147 765 q 113 838 113 792 q 163 937 113 898 q 277 977 214 977 q 360 948 328 977 q 393 873 393 920 q 342 778 393 817 q 231 739 292 739 q 147 765 181 739 m 494 765 q 477 779 494 765 q 460 838 460 792 q 511 937 460 898 q 625 977 562 977 q 708 948 675 977 q 741 873 741 920 q 690 778 741 817 q 576 739 639 739 q 494 765 528 739 z "},"å":{"ha":755,"x_min":25,"x_max":799,"o":"m 404 112 l 404 310 q 349 279 374 304 q 325 198 325 253 q 340 136 325 162 q 386 110 356 110 q 404 112 394 110 m 441 -8 q 430 -3 441 -8 q 410 22 418 2 l 406 32 q 197 -19 272 -19 q 67 14 110 -19 q 25 127 25 47 q 117 271 25 214 q 401 385 208 328 q 391 524 401 483 q 345 566 380 566 q 306 540 323 566 q 290 430 290 514 l 48 366 q 176 584 48 505 q 449 663 304 663 q 703 456 703 663 l 704 149 q 711 110 704 120 q 742 100 719 100 q 792 106 765 100 l 799 53 l 577 -7 q 496 -19 528 -19 q 441 -8 464 -19 m 446 821 q 454 828 446 821 q 461 857 461 836 q 446 893 461 878 q 409 909 431 909 q 373 893 388 909 q 357 857 357 878 q 373 821 357 836 q 409 806 388 806 q 446 821 431 806 m 299 746 q 276 769 299 746 q 253 857 253 792 q 299 967 253 922 q 409 1013 345 1013 q 520 967 474 1013 q 566 857 566 922 q 520 746 566 792 q 409 701 474 701 q 299 746 345 701 z "},"æ":{"ha":1124,"x_min":15,"x_max":1112,"o":"m 781 433 q 810 445 800 433 q 820 472 820 457 q 805 534 820 503 q 770 565 789 565 q 724 532 753 565 q 686 433 694 500 l 781 433 m 442 130 q 391 310 391 220 q 332 270 352 294 q 312 197 312 245 q 328 136 312 162 q 373 110 343 110 q 442 130 397 110 m 57 14 q 36 31 57 14 q 15 127 15 47 q 106 271 15 214 q 391 385 197 328 q 375 534 391 503 q 334 565 359 565 q 296 539 313 565 q 279 429 279 514 l 37 366 q 162 583 37 505 q 438 662 287 662 q 538 651 492 662 q 614 619 584 640 q 821 662 706 662 q 1034 566 956 662 q 1112 340 1112 471 l 685 340 q 760 212 685 273 q 939 151 835 151 q 1105 227 1015 151 l 1105 195 q 954 40 1050 98 q 734 -18 859 -18 q 484 77 574 -18 q 348 11 415 41 q 186 -19 281 -19 q 57 14 99 -19 z "},"ç":{"ha":723,"x_min":18,"x_max":713,"o":"m 229 -315 q 208 -309 229 -315 q 171 -264 187 -302 l 308 -227 q 350 -268 312 -268 q 371 -252 363 -268 q 378 -209 378 -237 q 359 -147 378 -170 q 282 -123 340 -123 q 232 -132 252 -125 q 190 -150 212 -139 l 182 -117 l 285 -15 q 93 84 168 -1 q 18 314 18 169 q 130 558 18 454 q 432 663 243 663 q 612 614 548 663 q 700 473 677 566 l 458 408 q 435 525 456 485 q 379 565 414 565 q 319 519 345 565 q 293 386 293 473 q 363 218 293 285 q 537 152 433 152 q 630 173 589 152 q 713 227 671 193 l 713 196 q 583 53 667 119 q 364 -18 500 -13 l 332 -50 q 380 -43 359 -43 q 547 -170 547 -43 q 471 -282 547 -236 q 323 -328 395 -328 q 229 -315 271 -328 z "},"è":{"ha":734,"x_min":19,"x_max":722,"o":"m 389 433 q 419 447 411 433 q 428 473 428 461 q 414 538 428 510 q 378 566 399 566 q 328 533 354 566 q 294 433 302 500 l 389 433 m 104 78 q 62 126 104 78 q 19 313 19 174 q 135 557 19 451 q 433 663 250 663 q 641 570 559 663 q 722 342 722 478 l 294 342 q 361 221 294 292 q 550 151 428 151 q 715 227 625 151 l 715 195 q 576 48 669 115 q 344 -18 484 -18 q 104 78 189 -18 m 147 886 l 147 915 l 298 972 q 316 970 311 972 q 328 961 321 968 l 498 774 l 389 742 l 147 886 z "},"é":{"ha":734,"x_min":19,"x_max":722,"o":"m 389 433 q 419 447 411 433 q 428 473 428 461 q 414 538 428 510 q 378 566 399 566 q 328 533 354 566 q 294 433 302 500 l 389 433 m 104 78 q 62 126 104 78 q 19 313 19 174 q 135 557 19 451 q 433 663 250 663 q 641 570 559 663 q 722 342 722 478 l 294 342 q 361 221 294 292 q 550 151 428 151 q 715 227 625 151 l 715 195 q 576 48 669 115 q 344 -18 484 -18 q 104 78 189 -18 m 256 774 l 426 960 q 439 970 433 968 q 456 972 445 972 l 606 915 l 606 886 l 364 742 l 256 774 z "},"ê":{"ha":734,"x_min":19,"x_max":722,"o":"m 389 433 q 419 447 411 433 q 428 473 428 461 q 414 538 428 510 q 378 566 399 566 q 328 533 354 566 q 294 433 302 500 l 389 433 m 104 78 q 62 126 104 78 q 19 313 19 174 q 135 557 19 451 q 433 663 250 663 q 641 570 559 663 q 722 342 722 478 l 294 342 q 361 221 294 292 q 550 151 428 151 q 715 227 625 151 l 715 195 q 576 48 669 115 q 344 -18 484 -18 q 104 78 189 -18 m 156 774 l 349 960 q 376 972 360 972 q 406 959 393 972 l 597 774 l 509 742 l 376 796 l 244 742 l 156 774 z "},"ë":{"ha":734,"x_min":19,"x_max":722,"o":"m 389 433 q 419 447 411 433 q 428 473 428 461 q 414 538 428 510 q 378 566 399 566 q 328 533 354 566 q 294 433 302 500 l 389 433 m 104 78 q 62 126 104 78 q 19 313 19 174 q 135 557 19 451 q 433 663 250 663 q 641 570 559 663 q 722 342 722 478 l 294 342 q 361 221 294 292 q 550 151 428 151 q 715 227 625 151 l 715 195 q 576 48 669 115 q 344 -18 484 -18 q 104 78 189 -18 m 97 765 q 80 779 97 765 q 62 838 62 792 q 113 937 62 898 q 227 977 163 977 q 310 948 277 977 q 343 873 343 920 q 292 778 343 817 q 181 739 241 739 q 97 765 131 739 m 444 765 q 427 779 444 765 q 410 838 410 792 q 461 937 410 898 q 574 977 511 977 q 658 948 625 977 q 691 873 691 920 q 640 778 691 817 q 526 739 589 739 q 444 765 478 739 z "},"ì":{"ha":441,"x_min":-16,"x_max":415,"o":"m 72 443 q 53 501 72 467 q -16 542 33 535 l -16 568 l 338 663 q 374 623 374 657 l 374 192 q 387 107 374 148 q 415 51 399 66 l 415 -1 l 72 -1 l 72 443 m -12 886 l -12 915 l 139 972 q 157 970 152 972 q 168 961 161 968 l 338 774 l 230 742 l -12 886 z "},"í":{"ha":441,"x_min":-16,"x_max":455,"o":"m 72 443 q 53 501 72 467 q -16 542 33 535 l -16 568 l 338 663 q 374 623 374 657 l 374 192 q 387 107 374 148 q 415 51 399 66 l 415 -1 l 72 -1 l 72 443 m 104 774 l 275 960 q 288 970 281 968 q 304 972 294 972 l 455 915 l 455 886 l 213 742 l 104 774 z "},"î":{"ha":441,"x_min":-16,"x_max":442,"o":"m 72 443 q 53 501 72 467 q -16 542 33 535 l -16 568 l 338 663 q 374 623 374 657 l 374 192 q 387 107 374 148 q 415 51 399 66 l 415 -1 l 72 -1 l 72 443 m 1 774 l 194 960 q 222 972 205 972 q 252 959 239 972 l 442 774 l 355 742 l 222 796 l 90 742 l 1 774 z "},"ï":{"ha":441,"x_min":-93,"x_max":536,"o":"m 72 443 q 53 501 72 467 q -16 542 33 535 l -16 568 l 338 663 q 374 623 374 657 l 374 192 q 387 107 374 148 q 415 51 399 66 l 415 -1 l 72 -1 l 72 443 m -59 765 q -76 779 -59 765 q -93 838 -93 792 q -42 937 -93 898 q 71 977 8 977 q 155 948 122 977 q 188 873 188 920 q 137 778 188 817 q 26 739 86 739 q -59 765 -24 739 m 289 765 q 272 779 289 765 q 255 838 255 792 q 306 937 255 898 q 419 977 356 977 q 503 948 470 977 q 536 873 536 920 q 485 778 536 817 q 370 739 433 739 q 289 765 323 739 z "},"ð":{"ha":850,"x_min":12,"x_max":840,"o":"m 506 145 q 517 175 506 145 q 527 286 527 205 q 414 540 527 540 q 348 496 372 540 q 324 368 324 452 q 357 168 324 250 q 445 85 391 85 q 506 145 486 85 m 444 642 q 366 751 409 701 l 144 685 l 140 776 l 303 824 q 197 921 250 880 l 506 979 q 583 907 545 947 l 767 961 l 774 871 l 645 833 q 768 636 697 772 q 840 353 840 500 q 705 95 840 208 q 398 -19 570 -19 q 125 61 239 -19 q 12 292 12 142 q 148 544 12 444 q 444 642 281 642 z "},"ñ":{"ha":848,"x_min":-15,"x_max":823,"o":"m 73 443 q 46 510 73 481 q -15 542 20 538 l -15 568 l 338 663 q 374 630 374 657 l 374 624 q 500 663 439 663 q 707 595 632 663 q 781 416 781 528 l 781 172 q 794 88 781 130 q 823 31 806 46 l 823 -1 l 479 -1 l 479 404 q 466 513 479 484 q 427 543 453 543 q 388 501 401 543 q 374 379 374 459 l 374 172 q 387 89 374 130 q 415 31 399 47 l 415 -1 l 73 -1 l 73 443 m 445 751 q 429 758 445 751 q 386 789 413 765 q 346 814 371 802 q 297 825 321 825 q 266 815 279 825 q 239 783 254 804 l 198 783 q 236 912 198 846 q 333 977 273 977 q 413 958 381 977 q 496 903 445 938 q 514 892 505 897 q 552 887 524 887 q 589 899 576 887 q 617 937 603 911 l 659 937 q 617 802 659 867 q 517 737 576 737 q 445 751 476 737 z "},"ò":{"ha":768,"x_min":12,"x_max":758,"o":"m 467 114 q 470 131 467 114 q 473 192 473 149 q 425 444 473 323 q 336 564 378 564 q 301 525 307 564 q 296 433 296 486 q 344 203 296 328 q 433 79 392 79 q 467 114 461 79 m 116 81 q 64 131 116 81 q 12 321 12 180 q 114 563 12 463 q 385 663 217 663 q 654 565 552 663 q 758 321 756 467 q 653 79 758 177 q 385 -19 549 -19 q 116 81 220 -19 m 203 886 l 203 915 l 354 972 q 372 970 367 972 q 383 961 376 968 l 553 774 l 445 742 l 203 886 z "},"ó":{"ha":768,"x_min":12,"x_max":758,"o":"m 467 114 q 470 131 467 114 q 473 192 473 149 q 425 444 473 323 q 336 564 378 564 q 301 525 307 564 q 296 433 296 486 q 344 203 296 328 q 433 79 392 79 q 467 114 461 79 m 116 81 q 64 131 116 81 q 12 321 12 180 q 114 563 12 463 q 385 663 217 663 q 654 565 552 663 q 758 321 756 467 q 653 79 758 177 q 385 -19 549 -19 q 116 81 220 -19 m 311 774 l 481 960 q 494 970 488 968 q 511 972 500 972 l 661 915 l 661 886 l 419 742 l 311 774 z "},"ô":{"ha":768,"x_min":12,"x_max":758,"o":"m 467 114 q 470 131 467 114 q 473 192 473 149 q 425 444 473 323 q 336 564 378 564 q 301 525 307 564 q 296 433 296 486 q 344 203 296 328 q 433 79 392 79 q 467 114 461 79 m 116 81 q 64 131 116 81 q 12 321 12 180 q 114 563 12 463 q 385 663 217 663 q 654 565 552 663 q 758 321 756 467 q 653 79 758 177 q 385 -19 549 -19 q 116 81 220 -19 m 212 774 l 404 960 q 432 972 416 972 q 462 959 449 972 l 652 774 l 565 742 l 432 796 l 300 742 l 212 774 z "},"õ":{"ha":768,"x_min":12,"x_max":758,"o":"m 467 114 q 470 131 467 114 q 473 192 473 149 q 425 444 473 323 q 336 564 378 564 q 301 525 307 564 q 296 433 296 486 q 344 203 296 328 q 433 79 392 79 q 467 114 461 79 m 116 81 q 64 131 116 81 q 12 321 12 180 q 114 563 12 463 q 385 663 217 663 q 654 565 552 663 q 758 321 756 467 q 653 79 758 177 q 385 -19 549 -19 q 116 81 220 -19 m 447 751 q 431 758 447 751 q 389 789 416 765 q 349 814 374 802 q 300 825 323 825 q 269 815 281 825 q 242 783 256 804 l 201 783 q 238 912 201 846 q 336 977 276 977 q 416 958 384 977 q 498 903 448 938 q 517 892 507 897 q 555 887 526 887 q 592 899 578 887 q 620 937 606 911 l 662 937 q 620 802 662 867 q 520 737 578 737 q 447 751 479 737 z "},"ö":{"ha":768,"x_min":12,"x_max":758,"o":"m 467 114 q 470 131 467 114 q 473 192 473 149 q 425 444 473 323 q 336 564 378 564 q 301 525 307 564 q 296 433 296 486 q 344 203 296 328 q 433 79 392 79 q 467 114 461 79 m 116 81 q 64 131 116 81 q 12 321 12 180 q 114 563 12 463 q 385 663 217 663 q 654 565 552 663 q 758 321 756 467 q 653 79 758 177 q 385 -19 549 -19 q 116 81 220 -19 m 152 765 q 134 779 152 765 q 117 838 117 792 q 168 937 117 898 q 281 977 218 977 q 365 948 332 977 q 398 873 398 920 q 347 778 398 817 q 236 739 296 739 q 152 765 186 739 m 499 765 q 482 779 499 765 q 465 838 465 792 q 516 937 465 898 q 629 977 566 977 q 713 948 680 977 q 746 873 746 920 q 695 778 746 817 q 581 739 644 739 q 499 765 533 739 z "},"÷":{"ha":909,"x_min":178,"x_max":734,"o":"m 178 526 l 734 526 l 734 433 l 178 433 l 178 526 m 386 602 q 371 616 386 602 q 357 671 357 631 q 386 742 357 713 q 456 770 415 770 q 526 742 496 770 q 555 671 555 713 q 526 602 555 631 q 456 573 496 573 q 386 602 415 573 m 386 218 q 371 232 386 218 q 357 288 357 247 q 386 358 357 329 q 456 387 415 387 q 526 358 496 387 q 555 288 555 329 q 526 218 555 247 q 456 189 496 189 q 386 218 415 189 z "},"ø":{"ha":768,"x_min":12,"x_max":757,"o":"m 429 433 q 388 523 411 481 q 336 564 364 564 q 302 525 309 564 q 296 433 296 486 q 309 312 296 373 l 429 433 m 465 115 q 469 133 465 115 q 473 198 473 151 q 459 331 473 265 l 338 210 q 380 123 354 167 q 433 79 406 79 q 465 115 458 79 m 168 39 l 109 -19 l 43 47 l 97 100 q 12 321 12 194 q 114 562 12 463 q 384 662 217 661 q 600 604 511 661 l 659 662 l 724 596 l 671 543 q 757 321 754 452 q 651 79 754 176 q 384 -19 549 -19 q 168 39 258 -19 z "},"ù":{"ha":862,"x_min":-9,"x_max":852,"o":"m 160 38 q 121 66 160 38 q 79 210 81 94 l 79 434 q 53 505 79 473 q -9 543 26 538 l -9 568 l 345 663 q 380 624 380 658 l 380 222 q 393 135 380 165 q 431 104 406 104 q 472 140 458 104 q 486 243 486 176 l 486 439 q 446 555 486 512 l 446 581 l 752 663 q 788 623 788 657 l 788 141 q 804 113 788 113 q 847 121 822 113 l 852 69 l 524 -18 q 484 11 484 -18 l 484 20 q 419 -9 448 0 q 359 -19 391 -19 q 160 38 240 -19 m 212 886 l 212 915 l 363 972 q 381 970 376 972 q 393 961 386 968 l 563 774 l 454 742 l 212 886 z "},"ú":{"ha":862,"x_min":-9,"x_max":852,"o":"m 160 38 q 121 66 160 38 q 79 210 81 94 l 79 434 q 53 505 79 473 q -9 543 26 538 l -9 568 l 345 663 q 380 624 380 658 l 380 222 q 393 135 380 165 q 431 104 406 104 q 472 140 458 104 q 486 243 486 176 l 486 439 q 446 555 486 512 l 446 581 l 752 663 q 788 623 788 657 l 788 141 q 804 113 788 113 q 847 121 822 113 l 852 69 l 524 -18 q 484 11 484 -18 l 484 20 q 419 -9 448 0 q 359 -19 391 -19 q 160 38 240 -19 m 321 774 l 491 960 q 504 970 498 968 q 521 972 510 972 l 671 915 l 671 886 l 429 742 l 321 774 z "},"û":{"ha":862,"x_min":-9,"x_max":852,"o":"m 160 38 q 121 66 160 38 q 79 210 81 94 l 79 434 q 53 505 79 473 q -9 543 26 538 l -9 568 l 345 663 q 380 624 380 658 l 380 222 q 393 135 380 165 q 431 104 406 104 q 472 140 458 104 q 486 243 486 176 l 486 439 q 446 555 486 512 l 446 581 l 752 663 q 788 623 788 657 l 788 141 q 804 113 788 113 q 847 121 822 113 l 852 69 l 524 -18 q 484 11 484 -18 l 484 20 q 419 -9 448 0 q 359 -19 391 -19 q 160 38 240 -19 m 221 774 l 414 960 q 441 972 425 972 q 471 959 458 972 l 662 774 l 574 742 l 441 796 l 309 742 l 221 774 z "},"ü":{"ha":862,"x_min":-9,"x_max":852,"o":"m 160 38 q 121 66 160 38 q 79 210 81 94 l 79 434 q 53 505 79 473 q -9 543 26 538 l -9 568 l 345 663 q 380 624 380 658 l 380 222 q 393 135 380 165 q 431 104 406 104 q 472 140 458 104 q 486 243 486 176 l 486 439 q 446 555 486 512 l 446 581 l 752 663 q 788 623 788 657 l 788 141 q 804 113 788 113 q 847 121 822 113 l 852 69 l 524 -18 q 484 11 484 -18 l 484 20 q 419 -9 448 0 q 359 -19 391 -19 q 160 38 240 -19 m 161 765 q 144 779 161 765 q 127 838 127 792 q 177 937 127 898 q 291 977 228 977 q 375 948 342 977 q 408 873 408 920 q 357 778 408 817 q 245 739 306 739 q 161 765 195 739 m 509 765 q 492 779 509 765 q 475 838 475 792 q 525 937 475 898 q 639 977 576 977 q 723 948 690 977 q 755 873 755 920 q 704 778 755 817 q 590 739 653 739 q 509 765 543 739 z "},"ý":{"ha":838,"x_min":-94,"x_max":772,"o":"m 24 -290 l -94 -128 l 174 -56 q 220 -94 202 -94 q 248 -72 234 -94 l 330 50 l 82 472 q 41 534 58 514 q -3 562 23 554 l -3 587 l 277 663 q 295 655 285 663 q 312 635 304 648 l 502 311 l 512 328 q 536 388 536 365 q 432 581 536 450 l 733 663 q 762 627 752 648 q 772 582 772 606 q 673 391 772 536 l 266 -233 q 199 -304 237 -279 q 121 -328 162 -328 q 24 -290 54 -328 m 355 774 l 526 960 q 538 970 532 968 q 555 972 545 972 l 706 915 l 706 886 l 464 742 l 355 774 z "},"þ":{"ha":857,"x_min":-22,"x_max":836,"o":"m 509 118 q 520 137 509 118 q 532 273 532 157 q 498 478 532 393 q 407 563 465 563 q 367 558 386 563 l 367 163 q 402 105 382 133 q 451 78 421 78 q 509 118 486 78 m 75 -314 q 70 -308 75 -314 q 65 -289 65 -302 l 65 805 q 50 850 65 827 q 15 889 35 873 q -22 905 -6 905 l -22 951 l 331 1046 q 367 1006 367 1040 l 367 637 q 488 662 420 662 q 744 579 652 662 q 836 342 836 496 q 722 82 836 183 q 465 -18 608 -18 q 367 -3 420 -18 l 367 -88 q 378 -145 367 -114 q 408 -197 389 -176 l 408 -248 l 101 -328 q 75 -314 84 -326 z "},"ÿ":{"ha":838,"x_min":-94,"x_max":772,"o":"m 24 -290 l -94 -128 l 174 -56 q 220 -94 202 -94 q 248 -72 234 -94 l 330 50 l 82 472 q 41 534 58 514 q -3 562 23 554 l -3 587 l 277 663 q 295 655 285 663 q 312 635 304 648 l 502 311 l 512 328 q 536 388 536 365 q 432 581 536 450 l 733 663 q 762 627 752 648 q 772 582 772 606 q 673 391 772 536 l 266 -233 q 199 -304 237 -279 q 121 -328 162 -328 q 24 -290 54 -328 m 168 765 q 151 779 168 765 q 134 838 134 792 q 184 937 134 898 q 298 977 235 977 q 381 948 349 977 q 414 873 414 920 q 363 778 414 817 q 252 739 313 739 q 168 765 202 739 m 515 765 q 498 779 515 765 q 481 838 481 792 q 532 937 481 898 q 646 977 583 977 q 729 948 696 977 q 762 873 762 920 q 711 778 762 817 q 597 739 660 739 q 515 765 549 739 z "},"ı":{"ha":441,"x_min":-16,"x_max":415,"o":"m 72 443 q 53 501 72 467 q -16 542 33 535 l -16 568 l 338 663 q 374 623 374 657 l 374 192 q 387 107 374 148 q 415 51 399 66 l 415 -1 l 72 -1 l 72 443 z "},"Ł":{"ha":829,"x_min":-17,"x_max":869,"o":"m 631 -1 l 67 -1 l 67 30 q 96 86 84 50 q 108 161 107 122 l 108 336 l -9 281 l -17 372 l 108 430 l 108 797 q 95 873 108 831 q 67 929 82 915 l 67 960 l 481 960 l 481 929 q 455 882 470 922 q 440 797 440 842 l 440 584 l 603 659 l 614 570 l 440 490 l 440 201 q 519 88 440 90 l 555 87 q 793 297 723 87 l 869 297 l 831 -22 q 631 -1 724 -1 z "},"ł":{"ha":470,"x_min":-2,"x_max":460,"o":"m 98 11 q 92 16 98 11 q 86 39 86 22 l 86 363 l 6 330 l -2 420 l 86 458 l 86 805 q 67 863 86 829 q -2 904 47 897 l -2 951 l 352 1045 q 388 1006 388 1040 l 388 584 l 450 610 l 460 521 l 388 490 l 388 192 q 400 107 388 148 q 429 51 413 66 l 429 -1 l 127 -1 q 98 11 110 -1 z "},"Œ":{"ha":1500,"x_min":9,"x_max":1484,"o":"m 701 148 q 711 179 701 148 q 721 351 721 210 q 690 607 721 484 q 607 808 659 730 q 494 886 555 886 q 397 817 423 886 q 370 628 370 748 q 403 357 370 482 q 494 158 436 231 q 621 85 551 85 q 701 148 681 85 m 1246 -1 l 676 -1 q 544 -16 615 -16 q 159 141 309 -16 q 9 482 9 298 q 164 835 9 689 q 544 981 320 981 q 691 961 623 981 l 1258 961 q 1451 981 1331 961 l 1436 663 l 1361 663 q 1284 812 1334 752 q 1101 871 1235 871 l 1055 871 l 1055 576 l 1130 576 q 1223 594 1177 576 q 1306 650 1268 613 l 1287 338 l 1234 338 q 1174 448 1219 410 q 1063 487 1128 487 l 1055 487 l 1055 201 q 1134 89 1055 90 l 1147 89 q 1289 142 1221 89 q 1408 298 1356 195 l 1484 298 l 1446 -21 q 1246 -1 1339 -1 z "},"œ":{"ha":1204,"x_min":12,"x_max":1192,"o":"m 861 433 q 889 444 879 433 q 899 473 899 454 q 883 537 899 509 q 850 565 867 565 q 803 532 833 565 q 766 433 774 500 l 861 433 m 467 115 q 470 134 467 115 q 473 195 473 152 q 427 445 473 326 q 336 564 380 564 q 304 531 312 564 q 296 433 296 497 q 346 197 296 315 q 433 79 396 79 q 467 115 461 79 m 608 43 q 385 -19 516 -19 q 123 75 234 -19 q 12 321 12 170 q 120 562 12 463 q 385 662 228 662 q 633 579 536 662 q 903 662 742 662 q 1111 570 1029 662 q 1192 340 1192 477 l 765 340 l 766 332 q 845 210 771 269 q 1018 151 918 151 q 1185 227 1094 151 l 1185 195 q 1031 38 1128 94 q 814 -18 935 -18 q 608 43 694 -18 z "},"ſ":{"ha":462,"x_min":-41,"x_max":760,"o":"m 79 -152 q 73 -147 79 -152 q 67 -124 67 -141 l 67 507 l -41 507 l -41 588 l 67 627 q 208 937 67 829 q 565 1046 349 1044 q 688 999 635 1046 q 760 894 742 952 l 519 829 q 482 913 504 884 q 436 942 460 942 q 388 872 403 942 q 370 707 372 802 l 369 64 q 381 -7 369 23 q 410 -52 393 -37 l 410 -83 l 109 -163 q 79 -152 92 -163 z "},"ƒ":{"ha":780,"x_min":-416,"x_max":1061,"o":"m -323 -288 q -355 -267 -323 -288 q -416 -175 -387 -247 l -91 -87 q -56 -207 -89 -207 q 30 -136 -6 -207 q 59 -63 48 -100 q 87 41 71 -26 l 215 523 l -35 523 l -35 554 l 248 644 q 324 819 269 729 q 511 987 391 927 q 809 1046 631 1046 q 968 1006 905 1046 q 1061 892 1031 965 l 734 806 q 700 925 732 925 q 652 908 673 925 q 614 854 632 891 q 580 760 601 827 q 549 644 559 693 l 880 644 l 880 604 l 656 523 l 517 523 l 398 80 q 319 -101 377 -7 q 133 -269 253 -210 q -165 -328 13 -328 q -323 -288 -260 -328 z "},"ˆ":{"ha":661,"x_min":110,"x_max":551,"o":"m 110 774 l 302 960 q 330 972 314 972 q 360 959 347 972 l 551 774 l 463 742 l 330 796 l 198 742 l 110 774 z "},"ˇ":{"ha":661,"x_min":110,"x_max":551,"o":"m 302 753 l 110 940 l 198 972 l 330 918 l 463 972 l 551 940 l 360 755 q 330 742 347 742 q 302 753 314 742 z "},"ˉ":{"ha":661,"x_min":124,"x_max":536,"o":"m 124 940 l 536 940 l 536 775 l 124 775 l 124 940 z "},"˘":{"ha":661,"x_min":109,"x_max":552,"o":"m 179 808 q 146 840 179 808 q 109 968 113 871 l 169 968 q 225 916 185 937 q 330 895 265 895 q 435 916 395 895 q 492 968 475 937 l 552 968 q 481 808 547 871 q 330 745 416 745 q 179 808 245 745 z "},"˙":{"ha":661,"x_min":191,"x_max":471,"o":"m 224 751 q 207 767 224 751 q 191 834 191 783 q 241 949 191 904 q 355 995 292 995 q 441 961 412 994 q 471 876 471 928 q 420 765 471 809 q 306 720 369 720 q 224 751 257 720 z "},"˚":{"ha":661,"x_min":174,"x_max":487,"o":"m 367 821 q 375 828 367 821 q 382 857 382 836 q 367 893 382 878 q 330 909 352 909 q 294 893 309 909 q 279 857 279 878 q 294 821 279 836 q 330 806 309 806 q 367 821 352 806 m 220 746 q 197 769 220 746 q 174 857 174 792 q 220 967 174 922 q 330 1013 266 1013 q 441 967 395 1013 q 487 857 487 922 q 441 746 487 792 q 330 701 395 701 q 220 746 266 701 z "},"˛":{"ha":661,"x_min":150,"x_max":511,"o":"m 206 -301 q 178 -287 206 -301 q 150 -215 150 -273 q 189 -106 150 -157 q 336 4 229 -56 l 470 4 q 356 -93 388 -47 q 324 -162 324 -139 q 344 -208 324 -199 q 400 -217 364 -217 q 507 -196 452 -217 l 511 -278 q 324 -328 396 -328 q 206 -301 262 -328 z "},"˜":{"ha":661,"x_min":100,"x_max":561,"o":"m 346 751 q 330 758 346 751 q 288 789 315 765 q 248 814 273 802 q 199 825 222 825 q 168 815 180 825 q 141 783 155 804 l 100 783 q 137 912 100 846 q 235 977 175 977 q 315 958 283 977 q 397 903 347 938 q 416 892 406 897 q 454 887 425 887 q 491 899 477 887 q 519 937 505 911 l 561 937 q 519 802 561 867 q 419 737 477 737 q 346 751 378 737 z "},"˝":{"ha":661,"x_min":11,"x_max":652,"o":"m 11 774 l 177 956 q 189 967 182 962 q 211 972 196 972 l 362 915 l 362 886 l 119 742 l 11 774 m 300 774 l 467 956 q 479 967 472 962 q 500 972 486 972 l 652 915 l 652 886 l 409 742 l 300 774 z "},"π":{"ha":932,"x_min":5,"x_max":927,"o":"m 507 46 q 471 78 507 46 q 435 219 435 111 q 464 352 435 297 q 534 452 492 407 l 391 452 l 340 143 q 287 58 332 96 q 186 -2 241 20 l 5 -2 q 57 80 35 39 q 98 182 79 121 l 186 452 q 102 437 132 452 q 41 391 72 421 l 5 397 l 94 564 q 129 612 111 597 q 177 627 146 627 l 896 627 l 896 588 l 785 452 l 723 452 q 692 366 703 410 q 681 281 681 321 q 722 140 681 180 q 839 100 763 100 q 888 106 864 100 q 927 121 913 113 l 927 67 q 799 5 861 28 q 667 -18 736 -18 q 507 46 579 -18 z "},"ẞ":{"ha":1079,"x_min":43,"x_max":1090,"o":"m 556 14 q 527 30 556 14 q 465 110 497 46 l 671 167 q 694 100 680 127 q 723 73 708 73 q 745 83 736 73 q 754 108 754 92 q 663 238 754 192 q 517 323 571 284 q 463 448 463 363 q 552 624 463 543 q 743 727 640 704 q 537 883 667 882 q 443 845 471 883 q 415 744 415 808 l 416 199 q 427 97 416 141 q 457 30 437 54 l 457 -1 l 43 -1 l 43 30 q 74 93 63 53 q 84 173 84 134 l 84 675 q 234 893 84 808 q 626 979 384 979 q 916 910 809 979 q 1050 761 1022 841 q 853 679 929 728 q 777 550 777 630 q 828 454 777 492 q 922 394 879 416 q 1047 306 1003 351 q 1090 199 1090 261 q 975 46 1090 112 q 697 -19 860 -19 q 556 14 616 -19 z "},"–":{"ha":909,"x_min":111,"x_max":798,"o":"m 111 368 l 798 368 l 798 276 l 111 276 l 111 368 z "},"—":{"ha":1374,"x_min":0,"x_max":1375,"o":"m 0 368 l 1375 368 l 1375 276 l 0 276 l 0 368 z "},"‘":{"ha":347,"x_min":-1,"x_max":349,"o":"m 44 507 q 22 523 44 507 q -1 595 -1 539 q 98 820 -1 717 q 331 979 198 923 l 349 886 q 271 831 304 863 q 222 769 238 800 q 312 732 275 763 q 349 647 349 701 q 285 525 349 576 q 144 474 222 474 q 44 507 90 474 z "},"’":{"ha":347,"x_min":-2,"x_max":349,"o":"m -2 567 q 74 621 41 590 q 125 684 108 651 q 36 722 73 690 q -2 806 -1 753 q 61 930 -1 882 q 201 979 123 979 q 307 944 266 979 q 349 859 349 909 q 253 638 349 739 q 16 474 158 538 l -2 567 z "},"‚":{"ha":347,"x_min":-1,"x_max":349,"o":"m -1 -134 q 75 -81 41 -112 q 125 -17 109 -50 q 36 20 73 -11 q -1 105 -1 52 q 59 224 -1 170 q 203 278 119 278 q 307 242 266 278 q 349 157 349 207 q 247 -68 349 35 q 16 -227 144 -172 l -1 -134 z "},"“":{"ha":842,"x_min":56,"x_max":785,"o":"m 101 507 q 78 523 101 507 q 56 595 56 539 q 155 820 56 717 q 388 979 255 923 l 406 886 q 328 831 361 863 q 279 769 295 800 q 369 732 332 763 q 406 647 406 701 q 342 525 406 576 q 201 474 279 474 q 101 507 147 474 m 481 507 q 458 523 481 507 q 435 595 435 539 q 535 820 435 717 q 768 979 635 923 l 785 886 q 708 831 741 863 q 659 769 675 800 q 748 732 711 763 q 785 647 785 701 q 722 525 785 576 q 581 474 659 474 q 481 507 527 474 z "},"”":{"ha":842,"x_min":56,"x_max":786,"o":"m 56 567 q 132 621 98 590 q 182 684 165 651 q 93 722 130 690 q 56 806 56 753 q 119 930 56 882 q 259 979 181 979 q 365 944 323 979 q 406 859 406 909 q 311 638 406 739 q 73 474 216 538 l 56 567 m 435 567 q 512 621 478 590 q 562 684 545 651 q 473 722 510 690 q 435 806 436 753 q 498 930 436 882 q 639 979 561 979 q 745 944 703 979 q 786 859 786 909 q 691 638 786 739 q 453 474 595 538 l 435 567 z "},"„":{"ha":842,"x_min":56,"x_max":786,"o":"m 56 -134 q 132 -81 98 -111 q 182 -17 165 -50 q 93 20 130 -11 q 56 105 56 52 q 119 229 56 180 q 259 278 181 278 q 365 243 323 278 q 406 157 406 208 q 311 -63 406 37 q 73 -227 216 -163 l 56 -134 m 435 -134 q 512 -81 478 -111 q 562 -17 545 -50 q 473 20 510 -11 q 435 105 436 52 q 498 229 436 180 q 639 278 561 278 q 745 243 703 278 q 786 157 786 208 q 691 -63 786 37 q 453 -227 595 -163 l 435 -134 z "},"†":{"ha":909,"x_min":128,"x_max":785,"o":"m 382 64 q 336 320 369 210 l 363 562 l 254 552 q 168 525 186 546 l 162 525 l 128 723 q 135 746 128 736 q 153 755 142 755 l 367 740 l 357 854 q 330 940 352 922 l 330 946 l 528 979 q 551 972 541 979 q 560 956 560 966 l 545 741 l 659 751 q 745 778 728 756 l 751 778 l 785 580 q 778 557 785 567 q 761 548 771 548 l 549 563 l 577 320 q 531 64 549 210 l 498 -328 l 416 -328 l 382 64 z "},"‡":{"ha":909,"x_min":128,"x_max":784,"o":"m 362 -321 q 357 -318 362 -321 q 353 -304 353 -315 l 368 -90 l 254 -100 q 202 -110 229 -102 q 168 -127 175 -117 l 161 -127 l 128 71 q 135 94 128 85 q 152 103 142 103 l 355 89 l 336 182 q 358 249 346 208 q 377 326 370 291 q 358 402 370 361 q 336 469 346 444 l 354 561 l 254 552 q 199 542 222 549 q 168 525 176 535 l 161 525 l 128 723 q 135 746 128 736 q 152 755 142 755 l 367 740 l 357 854 q 347 907 354 882 q 330 940 339 932 l 330 946 l 528 979 q 550 972 541 979 q 559 956 559 966 l 545 741 l 659 751 q 713 761 690 753 q 745 778 736 768 l 751 778 l 784 580 q 777 557 784 567 q 760 548 770 548 l 558 562 l 576 469 q 554 401 566 442 q 536 326 542 359 q 554 250 542 292 q 576 182 566 208 l 558 91 l 659 99 q 713 109 690 102 q 745 126 736 116 l 751 126 l 784 -72 q 777 -94 784 -85 q 760 -104 770 -104 l 546 -88 l 555 -203 q 565 -258 558 -235 q 583 -288 572 -281 l 583 -294 l 385 -328 q 362 -321 371 -328 z "},"•":{"ha":909,"x_min":271,"x_max":642,"o":"m 325 191 q 298 218 325 191 q 271 322 271 245 q 325 453 271 399 q 456 508 379 508 q 587 453 533 508 q 642 322 642 399 q 587 191 642 245 q 456 137 533 137 q 325 191 379 137 z "},"…":{"ha":1389,"x_min":56,"x_max":1333,"o":"m 98 15 q 77 32 98 15 q 56 105 56 48 q 118 229 56 180 q 260 278 181 278 q 365 243 323 277 q 406 150 406 208 q 342 30 406 78 q 201 -19 278 -19 q 98 15 140 -18 m 561 15 q 540 32 561 15 q 519 105 519 48 q 582 229 519 180 q 724 278 644 278 q 828 243 787 277 q 869 150 869 208 q 805 30 869 78 q 665 -19 741 -19 q 561 15 604 -18 m 1024 15 q 1003 32 1024 15 q 982 105 982 48 q 1045 229 982 180 q 1187 278 1107 278 q 1291 243 1250 277 q 1333 150 1333 208 q 1269 30 1333 78 q 1128 -19 1204 -19 q 1024 15 1067 -18 z "},"‰":{"ha":1829,"x_min":37,"x_max":1794,"o":"m 1572 102 q 1578 127 1572 102 q 1584 201 1584 152 q 1560 355 1584 296 q 1492 414 1537 414 q 1457 371 1470 414 q 1444 268 1444 329 q 1466 116 1444 178 q 1527 53 1488 53 q 1572 102 1559 53 m 375 594 q 381 619 375 594 q 387 692 387 644 q 363 847 387 788 q 295 905 340 905 q 260 863 273 905 q 247 759 247 821 q 269 607 247 669 q 329 545 291 545 q 375 594 362 545 m 959 102 q 965 127 959 102 q 971 201 971 152 q 947 355 971 296 q 880 414 924 414 q 844 371 857 414 q 831 268 831 329 q 853 116 831 178 q 913 53 875 53 q 959 102 946 53 m 286 22 l 844 990 l 932 939 l 374 -28 l 286 22 m 116 547 q 76 584 116 547 q 37 726 37 621 q 116 905 37 831 q 317 979 196 979 q 517 905 437 979 q 597 726 597 831 q 517 547 597 621 q 317 473 437 473 q 116 547 196 473 m 701 56 q 661 93 701 56 q 621 235 621 130 q 701 414 621 340 q 901 488 781 488 q 1102 414 1022 488 q 1181 235 1181 340 q 1102 56 1181 130 q 901 -18 1022 -18 q 701 56 781 -18 m 1313 56 q 1273 93 1313 56 q 1234 235 1234 130 q 1313 414 1234 340 q 1514 488 1393 488 q 1715 414 1635 488 q 1794 235 1794 340 q 1715 56 1794 130 q 1514 -18 1635 -18 q 1313 56 1393 -18 z "},"‹":{"ha":909,"x_min":319,"x_max":593,"o":"m 319 323 l 525 593 l 593 577 l 520 323 l 593 68 l 525 52 l 319 323 z "},"›":{"ha":909,"x_min":319,"x_max":593,"o":"m 319 68 l 392 323 l 319 577 l 387 593 l 593 323 l 387 52 l 319 68 z "},"⁄":{"ha":165,"x_min":-224,"x_max":389,"o":"m -224 7 l 340 983 l 389 954 l -175 -22 l -224 7 z "},"⁰":{"ha":506,"x_min":26,"x_max":480,"o":"m 308 578 q 314 607 308 578 q 320 690 320 637 q 298 861 320 792 q 233 930 275 930 q 198 879 210 930 q 186 762 186 828 q 207 592 186 665 q 264 519 228 519 q 308 578 296 519 m 91 545 q 58 583 91 545 q 26 726 26 620 q 91 905 26 831 q 253 980 155 980 q 416 905 351 980 q 480 726 480 831 q 416 545 480 620 q 253 471 351 471 q 91 545 155 471 z "},"⁴":{"ha":502,"x_min":33,"x_max":469,"o":"m 212 496 q 228 528 223 507 q 232 574 232 548 l 232 601 l 33 601 l 33 631 l 125 759 q 150 827 150 793 q 144 881 150 851 q 117 932 139 910 l 296 980 q 303 951 303 966 q 287 899 303 922 l 154 713 l 232 713 l 232 755 l 389 798 l 389 713 l 469 713 l 469 686 l 413 601 l 389 601 l 389 574 q 395 527 389 550 q 410 496 401 505 l 410 480 l 212 480 l 212 496 z "},"⁵":{"ha":500,"x_min":47,"x_max":455,"o":"m 108 493 q 83 504 108 493 q 47 554 58 515 l 205 596 q 257 520 213 520 q 289 556 281 520 q 296 637 296 591 q 259 727 296 697 q 170 757 222 757 q 125 749 150 757 q 85 730 100 741 l 58 760 l 183 971 l 455 971 l 455 940 l 393 859 l 180 859 l 149 810 q 267 838 191 838 q 410 791 368 838 q 453 675 453 745 q 380 528 453 585 q 210 471 307 471 q 108 493 158 471 z "},"⁶":{"ha":493,"x_min":46,"x_max":448,"o":"m 281 543 q 285 554 281 543 q 288 607 288 566 q 278 705 288 665 q 241 745 267 745 q 215 725 224 745 q 205 666 205 705 q 219 559 205 597 q 260 520 233 522 q 281 543 274 520 m 103 514 q 75 536 103 514 q 46 629 46 557 q 113 865 46 751 q 315 980 180 980 q 448 903 401 980 l 290 861 q 264 930 285 930 q 202 791 222 930 q 268 804 235 804 q 407 751 366 804 q 448 629 448 699 q 389 513 448 555 q 247 471 330 471 q 103 514 160 471 z "},"⁷":{"ha":494,"x_min":46,"x_max":448,"o":"m 124 483 q 123 485 124 483 q 121 491 121 486 q 176 646 121 541 q 269 801 230 751 l 307 850 l 138 850 q 85 837 100 850 l 64 819 l 46 823 l 92 939 q 134 971 104 971 l 448 971 l 448 951 l 349 819 q 302 718 321 781 q 283 614 283 654 q 309 500 283 551 l 309 480 l 130 480 q 124 483 127 480 z "},"⁸":{"ha":505,"x_min":50,"x_max":455,"o":"m 288 858 q 278 913 288 897 q 243 930 269 930 q 224 922 231 930 q 217 903 217 914 q 231 857 217 878 q 286 802 245 836 q 288 858 288 814 m 288 534 q 293 541 288 534 q 298 570 298 547 q 279 615 298 591 q 214 674 260 639 q 208 638 209 656 q 207 592 207 621 q 260 520 207 520 q 288 534 278 520 m 99 496 q 75 508 99 496 q 50 568 50 521 q 75 632 50 606 q 176 701 100 658 q 61 854 61 787 q 116 945 61 909 q 263 980 171 980 q 402 950 361 980 q 444 882 444 920 q 422 826 444 848 q 325 766 399 805 q 421 676 387 721 q 455 596 455 632 q 392 506 455 542 q 242 471 329 471 q 99 496 148 471 z "},"⁹":{"ha":493,"x_min":46,"x_max":448,"o":"m 279 726 q 284 736 279 726 q 288 785 288 746 q 274 892 288 854 q 233 930 260 930 q 213 908 220 930 q 205 844 205 885 q 216 745 205 785 q 252 705 227 705 q 279 726 270 705 m 46 548 l 204 590 q 230 521 209 521 q 292 660 272 521 q 226 647 259 647 q 87 700 127 647 q 46 821 46 752 q 105 938 46 896 q 247 980 164 980 q 391 937 334 980 q 448 821 448 893 q 376 578 448 686 q 178 471 304 471 q 46 548 92 471 z "},"€":{"ha":909,"x_min":23,"x_max":853,"o":"m 269 89 q 211 143 269 89 q 121 332 153 197 l 23 332 l 49 426 l 104 426 q 102 480 102 452 q 105 535 102 508 l 23 535 l 49 628 l 121 628 q 277 877 155 775 q 571 979 399 979 q 680 970 642 979 q 751 949 718 961 q 808 931 787 937 q 844 926 829 926 l 853 677 l 802 677 q 710 832 763 776 q 574 889 657 889 q 478 820 509 889 q 441 628 448 751 l 663 628 l 637 535 l 439 535 q 447 426 441 477 l 663 426 l 637 332 l 464 332 q 543 171 484 238 q 663 104 602 104 q 744 155 708 104 q 802 307 780 206 l 853 307 l 844 42 q 749 23 802 42 q 651 -9 692 1 q 571 -19 610 -19 q 269 89 385 -19 z "},"₹":{"ha":909,"x_min":94,"x_max":817,"o":"m 447 14 q 426 23 447 14 q 383 61 406 31 l 195 318 q 94 349 172 349 l 94 479 q 165 487 114 479 q 251 535 217 496 q 303 642 286 575 l 94 642 l 123 736 l 299 736 q 259 822 290 789 q 179 865 228 855 l 94 865 l 123 959 l 817 959 l 788 865 l 559 865 q 598 809 584 842 q 613 736 612 775 l 817 736 l 788 642 l 594 642 q 514 517 570 580 q 363 420 457 455 q 459 394 407 420 q 542 326 511 368 l 646 180 q 726 96 680 132 q 817 57 772 60 l 817 -3 l 531 -3 q 447 14 489 -3 z "},"₺":{"ha":909,"x_min":14,"x_max":899,"o":"m 314 -10 q 252 -5 314 -10 q 48 -1 191 -1 l 48 31 q 80 103 72 50 q 89 173 89 156 l 89 250 l 14 218 l 14 316 l 89 348 l 89 439 l 14 407 l 14 505 l 89 537 l 89 787 q 81 858 89 814 q 48 930 73 903 l 48 961 l 463 961 l 463 930 q 431 858 441 902 q 422 787 422 814 l 422 677 l 541 727 l 541 629 l 422 579 l 422 488 l 541 538 l 541 440 l 422 390 l 422 199 q 461 84 422 94 q 513 74 501 74 q 564 105 541 74 q 588 201 588 136 q 564 334 588 267 l 876 395 q 899 286 899 342 q 767 77 899 173 q 511 -19 636 -19 q 314 -10 437 -19 z "},"₽":{"ha":909,"x_min":-2,"x_max":915,"o":"m 559 537 q 570 551 559 537 q 582 640 582 565 q 546 814 582 755 q 441 873 509 873 l 431 873 l 431 562 q 454 516 431 523 q 493 509 477 509 q 559 537 536 509 m 57 31 q 86 91 75 51 q 98 163 98 130 l 98 207 l -2 207 l -2 300 l 98 300 l 98 777 q 71 852 98 823 q -2 882 44 880 l -2 961 l 446 961 q 788 887 662 961 q 915 694 915 813 q 794 508 915 589 q 431 395 673 426 l 431 300 l 669 300 l 669 207 l 431 207 l 431 163 q 443 88 431 126 q 471 31 454 50 l 471 0 l 57 0 l 57 31 z "},"ℓ":{"ha":659,"x_min":5,"x_max":654,"o":"m 374 600 q 439 687 417 627 q 460 838 460 747 q 449 936 460 902 q 417 970 437 970 q 349 916 373 970 q 326 680 326 861 l 326 573 l 374 600 m 154 14 q 140 30 154 14 q 125 102 125 46 l 125 403 l 14 338 l 5 396 l 125 465 l 125 680 q 249 927 125 807 q 476 1046 374 1046 q 609 1016 564 1046 q 654 924 654 985 q 589 715 654 805 q 375 539 524 625 l 326 511 l 326 169 q 340 104 326 118 q 387 90 354 90 q 453 104 412 90 q 524 136 494 118 l 604 182 l 611 123 l 435 33 q 324 -8 378 3 q 237 -19 269 -19 q 154 14 184 -19 z "},"™":{"ha":1312,"x_min":52,"x_max":1259,"o":"m 153 529 q 191 546 178 532 q 203 581 203 561 l 203 885 q 139 859 171 880 q 90 781 108 838 l 52 781 l 62 968 q 138 960 94 960 l 442 960 q 530 968 480 960 l 519 781 l 480 781 q 444 859 477 838 q 378 885 412 880 l 378 581 q 391 547 378 561 q 428 529 404 532 l 428 479 l 153 479 l 153 529 m 817 484 l 700 686 l 680 568 q 714 528 680 547 l 714 479 l 529 479 l 529 528 q 568 548 553 536 q 587 581 583 560 l 662 968 l 730 968 q 748 956 741 968 l 906 685 l 1038 969 l 1105 968 q 1120 956 1117 968 l 1200 581 q 1259 528 1208 542 l 1259 479 l 998 479 l 998 528 q 1015 571 1015 547 q 994 676 1015 576 l 903 471 l 835 471 q 817 484 824 471 z "},"∂":{"ha":757,"x_min":5,"x_max":751,"o":"m 501 130 q 522 163 501 130 q 542 283 542 196 q 504 485 542 408 q 365 562 466 562 q 255 512 294 562 q 215 369 215 462 q 274 147 215 230 q 410 64 334 64 q 501 130 460 64 m 110 60 q 58 100 110 60 q 5 292 5 139 q 133 545 5 444 q 397 645 260 645 q 517 638 476 645 q 405 863 492 787 q 207 938 317 938 q 122 923 168 938 q 43 882 76 908 l 43 945 q 204 1018 110 991 q 370 1044 298 1044 q 663 847 575 1044 q 751 354 751 650 q 631 98 751 216 q 353 -19 511 -19 q 110 60 215 -19 z "},"∆":{"ha":739,"x_min":5,"x_max":734,"o":"m 469 134 l 298 627 l 127 134 l 469 134 m 370 1044 l 734 -3 l 5 -3 l 370 1044 z "},"∏":{"ha":1246,"x_min":5,"x_max":1241,"o":"m 39 -250 q 123 -200 107 -248 q 140 -136 140 -153 l 140 863 q 128 915 140 881 q 84 966 116 949 l 5 966 l 5 1032 l 1241 1032 l 1241 966 l 1160 966 q 1117 915 1128 949 q 1105 863 1105 881 l 1105 -136 q 1114 -180 1105 -153 q 1145 -228 1123 -208 q 1205 -250 1167 -249 l 1205 -310 l 800 -310 l 800 -250 q 884 -200 868 -248 q 900 -136 900 -153 l 900 863 q 888 915 900 881 q 844 966 876 949 l 399 966 q 356 915 368 949 q 345 863 345 881 l 345 -136 q 354 -180 345 -153 q 385 -228 363 -208 q 444 -250 407 -249 l 444 -310 l 39 -310 l 39 -250 z "},"∑":{"ha":1065,"x_min":5,"x_max":1060,"o":"m 5 -290 l 421 351 l 5 1000 l 5 1028 l 921 1027 l 996 791 l 931 791 l 796 958 l 267 958 l 591 458 l 222 -125 l 839 -125 q 895 -121 868 -125 q 943 -97 922 -116 l 1024 -19 l 1060 -26 l 973 -260 q 918 -310 956 -310 l 5 -310 l 5 -290 z "},"−":{"ha":909,"x_min":157,"x_max":755,"o":"m 157 524 l 755 524 l 755 431 l 157 431 l 157 524 z "},"√":{"ha":524,"x_min":-47,"x_max":572,"o":"m 111 540 l -24 494 l -47 568 l 275 678 l 381 443 l 499 1046 l 572 1046 l 363 -19 l 111 540 z "},"∞":{"ha":1100,"x_min":5,"x_max":1095,"o":"m 1003 281 q 941 433 1002 387 q 795 480 880 480 q 711 455 755 480 q 631 376 667 429 q 763 235 686 299 q 911 172 840 172 q 1003 281 1003 174 m 388 190 q 411 202 388 190 q 469 268 433 215 q 339 411 406 351 q 189 473 271 472 q 97 363 97 471 q 157 211 98 258 q 303 164 217 164 q 388 190 343 164 m 65 86 q 35 120 65 86 q 5 274 5 155 q 97 513 5 406 q 326 620 189 620 q 449 570 390 618 q 583 428 509 521 q 722 576 643 524 q 890 627 802 627 q 1041 552 987 627 q 1095 370 1095 477 q 996 129 1095 233 q 774 24 898 24 q 651 74 710 25 q 517 216 591 123 q 379 68 456 119 q 210 17 301 17 q 65 86 125 17 z "},"∫":{"ha":744,"x_min":5,"x_max":739,"o":"m 41 -286 q 23 -266 41 -286 q 5 -189 5 -245 q 36 -109 5 -141 q 115 -77 66 -77 q 194 -99 163 -77 q 226 -168 226 -120 q 199 -244 226 -200 l 204 -244 q 264 -132 256 -244 q 272 40 272 -20 l 272 632 q 355 917 272 787 q 590 1046 438 1046 q 703 1004 667 1045 q 739 907 739 964 q 708 827 739 859 q 629 795 677 795 q 550 817 581 795 q 518 886 518 838 q 545 962 518 920 l 540 962 q 481 851 491 962 q 472 683 472 741 l 472 87 q 389 -198 472 -68 q 154 -328 306 -328 q 41 -286 77 -327 z "},"≈":{"ha":909,"x_min":132,"x_max":779,"o":"m 444 325 q 315 367 386 367 q 157 286 217 367 l 132 367 q 314 460 201 459 q 460 414 401 460 q 595 368 522 368 q 755 449 693 368 l 779 368 q 597 275 710 277 q 444 325 512 275 m 444 545 q 314 587 386 587 q 157 506 217 587 l 132 587 q 317 680 204 680 q 462 634 399 680 q 597 588 522 589 q 755 669 694 591 l 779 588 q 597 495 709 495 q 444 545 511 495 z "},"≠":{"ha":909,"x_min":178,"x_max":734,"o":"m 371 298 l 178 298 l 178 392 l 391 392 l 427 563 l 178 563 l 178 656 l 447 656 l 515 979 l 610 979 l 541 656 l 734 656 l 734 563 l 521 563 l 485 392 l 734 392 l 734 298 l 465 298 l 397 -19 l 304 -19 l 371 298 z "},"≤":{"ha":909,"x_min":151,"x_max":760,"o":"m 151 250 l 760 250 l 760 156 l 151 156 l 151 250 m 151 498 l 151 578 l 756 799 l 756 701 l 317 541 l 756 381 l 756 280 l 151 498 z "},"≥":{"ha":909,"x_min":151,"x_max":760,"o":"m 151 250 l 760 250 l 760 156 l 151 156 l 151 250 m 156 381 l 595 541 l 156 701 l 156 799 l 760 578 l 760 498 l 156 280 l 156 381 z "},"◊":{"ha":745,"x_min":5,"x_max":739,"o":"m 641 514 l 372 979 l 104 514 l 372 48 l 641 514 m 5 514 l 313 1046 l 432 1046 l 739 514 l 432 -19 l 313 -19 l 5 514 z "},"":{"ha":844,"x_min":-41,"x_max":817,"o":"m 476 593 l 741 663 q 777 624 777 658 l 777 193 q 789 109 777 151 q 817 52 801 68 l 817 0 l 475 0 l 475 444 q 453 490 475 472 q 387 507 431 507 l 369 507 l 369 172 q 381 89 369 130 q 410 31 394 47 l 410 0 l 67 0 l 67 507 l -41 507 l -41 589 l 67 627 q 217 942 67 838 q 563 1046 366 1046 q 684 1002 631 1046 q 760 895 738 957 l 519 829 q 484 914 506 884 q 436 943 463 943 q 388 873 403 943 q 370 708 372 803 q 416 626 376 663 q 476 593 442 601 z "},"":{"ha":838,"x_min":-41,"x_max":817,"o":"m 474 593 l 474 818 q 460 912 474 882 q 435 943 446 943 q 386 867 402 943 q 370 707 370 791 q 416 625 377 662 q 474 593 442 602 m 474 507 l 368 507 l 368 172 q 381 87 368 129 q 410 31 393 45 l 410 0 l 67 0 l 67 507 l -41 507 l -41 589 l 67 627 q 212 937 67 829 q 562 1046 357 1046 q 655 1023 604 1046 l 740 1046 q 776 1006 776 1040 l 776 172 q 788 87 776 129 q 817 31 800 45 l 817 0 l 474 0 l 474 507 z "},"ﬀ":{"ha":931,"x_min":-41,"x_max":1166,"o":"m 474 594 l 474 638 q 511 810 476 737 q 483 856 505 831 q 436 881 462 881 q 386 815 403 881 q 369 716 369 749 q 414 629 372 667 q 474 594 441 603 m 67 507 l -41 507 l -41 589 l 67 627 q 214 893 68 802 q 562 984 360 984 q 650 960 604 984 q 792 1022 709 998 q 971 1046 875 1046 q 1093 999 1037 1046 q 1166 894 1149 953 l 925 829 q 888 913 910 884 q 843 943 866 943 q 793 868 810 943 q 777 707 777 794 q 821 626 783 663 q 917 589 860 589 l 941 589 l 941 507 l 776 507 l 776 172 q 788 88 776 130 q 817 31 800 47 l 817 0 l 474 0 l 474 507 l 369 507 l 369 172 q 381 88 369 130 q 410 31 393 47 l 410 0 l 67 0 l 67 507 z "},"ﬃ":{"ha":1251,"x_min":-41,"x_max":1224,"o":"m 474 594 l 474 638 q 511 810 476 737 q 483 856 505 831 q 436 881 462 881 q 386 815 403 881 q 369 716 369 749 q 414 629 372 667 q 474 594 441 603 m 885 592 l 1147 663 q 1183 623 1183 657 l 1183 193 q 1195 109 1183 151 q 1224 52 1208 67 l 1224 0 l 882 0 l 882 443 q 859 490 882 473 q 793 507 837 507 l 776 507 l 776 172 q 788 88 776 130 q 817 31 800 47 l 817 0 l 474 0 l 474 507 l 369 507 l 369 172 q 381 88 369 130 q 410 31 393 47 l 410 0 l 67 0 l 67 507 l -41 507 l -41 589 l 67 627 q 214 893 68 802 q 562 984 360 984 q 650 960 604 984 q 792 1022 709 998 q 971 1046 875 1046 q 1093 999 1037 1046 q 1166 894 1149 953 l 925 829 q 888 913 910 884 q 843 943 866 943 q 793 868 810 943 q 777 707 777 794 q 822 626 783 663 q 885 592 849 600 z "},"ﬄ":{"ha":1245,"x_min":-41,"x_max":1224,"o":"m 882 593 l 882 818 q 868 912 882 882 q 843 943 854 943 q 793 868 810 943 q 777 707 777 794 q 821 626 783 663 q 882 593 847 601 m 474 594 l 474 638 q 511 810 476 737 q 483 856 505 831 q 436 881 462 881 q 386 815 403 881 q 369 716 369 749 q 414 629 372 667 q 474 594 441 603 m 882 507 l 776 507 l 776 172 q 788 88 776 130 q 817 31 800 47 l 817 0 l 474 0 l 474 507 l 369 507 l 369 172 q 381 88 369 130 q 410 31 393 47 l 410 0 l 67 0 l 67 507 l -41 507 l -41 589 l 67 627 q 214 893 68 802 q 562 984 360 984 q 650 960 604 984 q 792 1022 709 998 q 972 1046 876 1046 q 1063 1023 1019 1046 l 1147 1046 q 1183 1006 1183 1040 l 1183 172 q 1196 87 1183 129 q 1224 31 1208 45 l 1224 0 l 882 0 l 882 507 z "},"ﬅ":{"ha":938,"x_min":-41,"x_max":965,"o":"m 80 -152 q 74 -147 80 -152 q 68 -124 68 -141 l 68 507 l -41 507 l -41 589 l 68 627 q 204 933 68 820 q 563 1046 341 1046 q 708 1000 637 1046 q 780 867 780 954 l 779 745 q 829 639 779 689 q 936 589 880 589 l 936 507 l 779 507 l 779 216 q 799 170 779 186 q 855 153 818 153 q 965 169 911 153 l 965 127 q 628 -19 758 -19 q 508 9 542 -19 q 475 100 475 37 l 475 507 l 413 507 l 413 589 q 466 656 456 613 q 475 785 475 700 q 461 896 475 849 q 436 943 447 943 q 388 873 403 943 q 370 707 372 803 l 370 64 q 381 -7 370 22 q 410 -52 393 -37 l 410 -82 l 109 -163 q 80 -152 92 -163 z "},"Š":{"ha":823,"x_min":47,"x_max":788,"o":"m 197 -1 q 161 6 197 -1 q 87 14 125 14 q 58 12 73 14 l 67 342 l 144 342 q 246 148 191 216 q 379 80 301 80 q 473 99 444 80 q 503 165 503 117 q 442 269 503 223 q 322 350 381 315 q 115 513 182 436 q 47 688 47 590 q 152 889 47 799 q 406 980 257 980 q 605 964 526 980 q 733 948 684 948 l 724 636 l 647 636 q 564 822 610 759 q 467 885 517 885 q 392 864 422 885 q 362 799 362 844 q 423 663 362 716 q 562 570 484 609 q 733 447 679 509 q 788 293 788 385 q 657 67 788 151 q 382 -16 526 -16 q 197 -1 269 -16 m 390 1109 l 197 1295 l 286 1327 l 418 1273 l 551 1327 l 638 1295 l 448 1110 q 418 1097 435 1097 q 390 1109 401 1097 z "},"Ÿ":{"ha":762,"x_min":-56,"x_max":864,"o":"m 214 30 q 243 93 232 49 q 254 183 254 136 l 254 471 l 35 810 q -56 930 -14 886 l -56 959 l 449 959 l 449 930 q 427 878 427 912 q 448 792 427 829 l 515 670 l 604 794 q 621 861 621 818 q 615 895 621 876 q 599 930 610 914 l 599 959 l 864 959 l 864 928 q 741 779 796 853 l 587 562 l 587 183 q 598 92 587 136 q 627 30 609 47 l 627 -1 l 214 -1 l 214 30 m 124 1121 q 107 1134 124 1121 q 90 1193 90 1147 q 140 1293 90 1253 q 254 1332 191 1332 q 337 1304 304 1332 q 370 1229 370 1276 q 319 1133 370 1172 q 208 1094 269 1094 q 124 1121 158 1094 m 471 1121 q 454 1134 471 1121 q 437 1193 437 1147 q 488 1293 437 1253 q 602 1332 538 1332 q 685 1304 652 1332 q 718 1229 718 1276 q 667 1133 718 1172 q 553 1094 616 1094 q 471 1121 505 1094 z "},"Ž":{"ha":926,"x_min":42,"x_max":921,"o":"m 763 -2 q 59 0 726 0 l 59 49 l 494 869 l 481 869 q 251 817 343 869 q 119 661 159 764 l 42 661 l 82 975 q 185 961 140 961 l 863 959 l 863 910 l 433 90 l 449 90 q 688 159 575 90 q 844 340 802 228 l 921 340 l 881 -16 q 763 -2 856 -7 m 454 1109 l 261 1295 l 349 1327 l 481 1273 l 614 1327 l 702 1295 l 511 1110 q 481 1097 498 1097 q 454 1109 465 1097 z "},"š":{"ha":741,"x_min":8,"x_max":710,"o":"m 56 23 q 34 44 56 23 q 8 128 12 64 l 250 198 l 252 195 q 286 106 252 134 q 377 79 320 79 q 406 90 393 79 q 419 118 419 101 q 380 175 419 150 q 265 229 341 200 q 64 343 109 288 q 20 455 20 398 q 129 602 20 541 q 420 663 238 663 q 586 631 532 663 q 653 541 640 600 l 418 477 q 398 539 418 515 q 347 564 378 564 q 322 553 331 564 q 314 526 314 543 q 349 479 314 498 q 456 436 384 460 q 661 336 612 387 q 710 219 710 285 q 574 45 710 109 q 261 -19 438 -19 q 56 23 99 -19 m 339 753 l 146 940 l 235 972 l 367 918 l 500 972 l 587 940 l 397 755 q 367 742 384 742 q 339 753 351 742 z "},"ž":{"ha":715,"x_min":2,"x_max":724,"o":"m 22 32 q 176 237 87 130 q 340 406 264 343 l 148 406 q 100 398 119 406 q 60 371 81 391 l 40 353 l 2 368 l 93 557 q 145 618 110 592 q 214 644 180 644 l 667 644 l 671 632 l 501 441 q 342 237 389 313 l 563 237 q 667 288 612 237 l 688 307 l 724 300 l 647 86 q 609 25 634 49 q 551 0 583 1 l 37 -1 l 22 32 m 342 753 l 150 940 l 238 972 l 370 918 l 503 972 l 591 940 l 400 755 q 370 742 387 742 q 342 753 354 742 z "}}}
